<svg width="560" height="600" fill="none" xmlns="http://www.w3.org/2000/svg"><path d="M620.39 130.126c69.029 31.102 130.554 85.987 184.577 164.657C858.989 373.453 886 475.906 886 602.143c0 100.624-21.759 193.015-65.277 277.173-43.518 84.158-105.043 150.934-184.576 200.334-78.032 47.57-166.569 71.35-265.61 71.35H-325V-770h668.526c93.038 0 175.572 22.869 247.602 68.607 73.531 45.738 130.554 107.942 171.071 186.612 40.517 76.84 60.775 162.827 60.775 257.963 0 102.453-20.258 186.61-60.775 252.474-40.517 65.863-87.786 110.686-141.809 134.47ZM-3.117-435.197V-9.833H305.26c57.024 0 103.543-20.125 139.558-60.374 37.515-40.25 56.273-91.476 56.273-153.68 0-60.374-18.758-110.686-56.273-150.936-37.516-40.249-84.035-60.374-139.558-60.374H-3.117ZM334.522 816.197c67.528 0 122.301-22.869 164.318-68.607 43.518-47.568 65.277-108.857 65.277-183.867 0-73.181-21.759-132.64-65.277-178.379-42.017-47.567-96.79-71.351-164.318-71.351H-3.118v502.204h337.64Z" fill="#FF5911"/></svg>