<svg width="580" height="416" fill="none" xmlns="http://www.w3.org/2000/svg"><path d="M916.862 1805c-197.169 0-380.408-51.42-549.716-154.25-169.309-104.97-304.327-246.37-405.054-424.18C-138.636 1046.61-189 850.591-189 638.5c0-212.091 50.364-407.043 151.092-584.857 100.727-179.956 235.745-321.35 405.054-424.182C536.454-475.513 719.693-528 916.862-528c180.028 0 340.758 40.704 482.208 122.113 141.45 79.266 257.18 183.17 347.19 311.71 92.15 126.397 155.38 262.435 189.67 408.114h-479c-30-107.117-92.15-200.308-186.45-279.575-94.3-79.266-212.17-118.9-353.618-118.9-115.73 0-222.887 32.136-321.472 96.406C496.806 73.995 417.509 160.76 357.501 272.16 299.637 381.42 270.704 503.533 270.704 638.5c0 134.967 28.933 258.151 86.797 369.55 60.008 109.26 139.305 196.03 237.889 260.3 98.585 62.12 205.742 93.19 321.472 93.19 141.448 0 259.318-38.56 353.618-115.69 96.44-79.27 163.95-172.46 202.53-279.573H1952c-34.29 143.533-97.51 279.573-189.67 408.113-90.01 126.4-207.88 230.3-353.62 311.71-143.59 79.27-307.54 118.9-491.848 118.9Z" fill="#FF5911"/></svg>