<svg width="341" height="107" fill="none" xmlns="http://www.w3.org/2000/svg"><path d="M416.402 951c-80.304 0-154.935-20.959-223.891-62.876-68.957-42.791-123.948-100.427-164.973-172.909C-13.487 641.86-34 561.955-34 475.5c0-86.455 20.512-165.923 61.538-238.405C68.563 163.74 123.554 106.103 192.51 64.186 261.467 21.396 336.098 0 416.402 0c73.322 0 138.787 16.592 196.397 49.777 57.609 32.311 104.744 74.665 141.405 127.062 37.533 51.523 63.283 106.976 77.249 166.359H636.366c-12.22-43.664-37.533-81.651-75.94-113.962-38.406-32.312-86.414-48.467-144.024-48.467-47.135 0-90.778 13.099-130.931 39.297-40.152 25.325-72.448 60.693-96.888 106.103-23.568 44.538-35.352 94.314-35.352 149.331 0 55.017 11.784 105.23 35.352 150.641 24.44 44.537 56.736 79.905 96.888 106.103 40.153 25.325 83.796 37.987 130.931 37.987 57.61 0 105.618-15.719 144.024-47.157 39.28-32.311 66.775-70.298 82.487-113.962H838c-13.966 58.509-39.716 113.962-77.249 166.359-36.661 51.524-84.669 93.878-144.024 127.062C558.244 934.844 491.469 951 416.402 951Z" fill="#FF5911"/></svg>