<svg width="341" height="268" fill="none" xmlns="http://www.w3.org/2000/svg"><path d="M313.353-34.177c42.01 18.894 79.454 52.237 112.331 100.029C458.561 113.643 475 175.883 475 252.57c0 61.129-13.242 117.256-39.727 168.382-26.484 51.126-63.928 91.693-112.331 121.701C275.453 571.551 221.571 586 161.296 586H-262V-581h406.857c56.622 0 106.851 13.893 150.688 41.679 44.749 27.785 79.453 65.574 104.111 113.365 24.658 46.68 36.987 98.917 36.987 156.712 0 62.24-12.329 113.365-36.987 153.377-24.658 40.011-53.426 67.241-86.303 81.69ZM-66.106-377.61v258.408H121.57c34.704 0 63.015-12.226 84.933-36.678 22.831-24.451 34.247-55.571 34.247-93.36 0-36.677-11.416-67.241-34.247-91.692-22.832-24.452-51.143-36.678-84.933-36.678H-66.106Zm205.483 760.218c41.097 0 74.431-13.893 100.002-41.679 26.485-28.897 39.727-66.13 39.727-111.699 0-44.457-13.242-80.578-39.727-108.364-25.571-28.897-58.905-43.346-100.002-43.346H-66.106V382.61h205.483Z" fill="#FF5911"/></svg>