<svg width="341" height="268" fill="none" xmlns="http://www.w3.org/2000/svg"><path d="M350.553 621.548h-467.926V872h856.05V677.809L325.162 260.39c-51.992-52.026-90.079-92.558-114.261-121.596-25.392-29.038-43.528-56.261-54.41-81.67C144.4 30.508 138.354 1.47 138.354-29.988c0-44.766 16.928-81.064 50.783-108.892 32.646-29.038 74.964-43.557 126.956-43.557 55.619 0 101.565 16.939 137.839 50.817C488.996-97.744 506.528-53.582 506.528.864H755c0-79.854-18.741-151.844-56.224-215.969-38.691-64.125-91.287-114.337-157.788-150.634C473.277-403.246 398.313-422 316.093-422c-87.056 0-163.23 16.939-228.522 50.816-66.5 32.668-117.888 78.04-154.161 136.115C-102.863-178.203-121-114.078-121-42.693c0 58.076 10.882 111.917 32.646 161.523 20.555 49.607 48.969 96.188 85.242 139.745 35.064 42.347 82.22 93.163 141.466 152.449l212.199 210.524Z" fill="#5F00E2"/></svg>