<svg width="580" height="384" fill="none" xmlns="http://www.w3.org/2000/svg"><path d="M389.832 805.645H-430.64V1245h1501.02V904.341L345.311 172.083C254.147 80.816 187.364 9.713 144.963-41.227c-44.522-50.94-76.323-98.696-95.404-143.268-21.201-46.695-31.801-97.634-31.801-152.819 0-78.532 29.681-142.207 89.043-191.024 57.243-50.94 131.445-76.409 222.609-76.409 97.524 0 178.087 29.714 241.689 89.144 61.483 59.43 92.224 136.9 92.224 232.412H1099c0-140.084-32.86-266.372-98.58-378.864-67.846-112.491-160.07-200.575-276.675-264.249C605.021-992.101 473.576-1025 329.41-1025c-152.646 0-286.211 29.715-400.696 89.144-116.604 57.308-206.708 136.901-270.31 238.78C-405.199-597.319-437-484.827-437-359.6c0 101.879 19.081 196.33 57.242 283.352 36.041 87.022 85.863 168.738 149.466 245.147 61.482 74.287 144.166 163.432 248.05 267.434l372.074 369.312Z" fill="#5F00E2"/></svg>