<svg width="560" height="200" fill="none" xmlns="http://www.w3.org/2000/svg"><path d="M509.108-735.171c72.22 32.543 136.591 89.971 193.111 172.285C758.74-480.571 787-373.371 787-241.286 787-136 764.235-39.328 718.704 48.729c-45.53 88.057-109.901 157.928-193.111 209.614C443.952 308.114 351.322 333 247.701 333H-480v-2010h699.44c97.341 0 183.692 23.93 259.052 71.79 76.931 47.85 136.592 112.94 178.982 195.25 42.39 80.4 63.585 170.37 63.585 269.92 0 107.2-21.195 195.254-63.585 264.169-42.39 68.914-91.846 115.814-148.366 140.7Zm-652.34-591.519v445.076h322.637c59.661 0 108.331-21.057 146.011-63.172 39.251-42.114 58.876-95.714 58.876-160.804 0-63.17-19.625-115.81-58.876-157.92-39.25-42.12-87.92-63.18-146.011-63.18h-322.637ZM210.02-17.314c70.651 0 127.956-23.929 171.917-71.786 45.53-49.771 68.295-113.9 68.295-192.386 0-76.571-22.765-138.785-68.295-186.642-43.961-49.772-101.266-74.658-171.917-74.658h-353.252v525.472H210.02Z" fill="#FF5911"/></svg>