<svg width="339" height="269" fill="none" xmlns="http://www.w3.org/2000/svg"><mask id="mask0_383_154" style="mask-type:alpha" maskUnits="userSpaceOnUse" x="0" y="0" width="339" height="269"><rect y=".687" width="339" height="268" rx="20" fill="#1F2229"/></mask><g mask="url('#mask0_383_154')"><path d="M0 181.413h24.597l31.148 62.746 31.025-62.746h24.597l-43.508 87.763h-24.35L0 181.413ZM86.77 255.798l24.597-49.634v63.012H86.77v-13.378ZM146.658 202.401v-20.988h-24.845v20.988h24.845Z" fill="#51C6F3"/><path d="M0 181.413h24.597l31.148 62.746 12.114 25.017h-24.35L0 181.413ZM0 206.164l24.597 49.634v13.378H0v-63.012ZM192.247 195.727l-15.821 20.47-23.98-30.77v-4.014h28.676l11.125 14.314ZM206.461 254.861l15.944-20.469 23.857 30.77v4.014h-28.676l-11.125-14.315Z" fill="#EF2CA0"/><path d="m339 185.427-65.14 83.749h-28.676v-4.014l65.14-83.749H339v4.014Z" fill="#EF2CA0"/><path d="m246.262 185.427-65.14 83.749h-28.676v-4.014l65.14-83.749h28.676v4.014Z" fill="#fff"/><path d="m284.985 195.727-15.821 20.47-23.98-30.77v-4.014h28.676l11.125 14.314ZM299.199 254.861l15.945-20.469L339 265.162v4.014h-28.676l-11.125-14.315ZM121.813 213.53v55.646h24.845V213.53h-24.845Z" fill="#fff"/></g></svg>