<svg width="341" height="380" fill="none" xmlns="http://www.w3.org/2000/svg"><path d="M607.834 294.349c-21.808 48.508-60.294 91.744-115.457 129.707C437.214 462.019 365.374 481 276.857 481c-70.557 0-135.341-15.291-194.353-45.872-59.011-30.581-105.836-73.816-140.473-129.706C-91.323 250.587-108 188.37-108 118.771V-370h1347V99.79c0 65.38-16.04 123.379-48.11 173.996-32.07 51.672-75.69 91.744-130.85 120.216-53.88 28.472-114.173 42.708-180.881 42.708-71.84 0-130.852-14.236-177.035-42.708-46.183-28.472-77.613-61.69-94.29-99.653Zm396.406-438.154H705.973V72.9c0 40.071 14.111 72.762 42.334 98.07 28.223 26.363 64.143 39.545 107.76 39.545 42.334 0 77.613-13.182 105.836-39.545s42.337-59.053 42.337-98.07v-216.705ZM126.763 93.463c0 47.453 16.036 85.943 48.107 115.47 33.354 30.581 76.33 45.872 128.927 45.872 51.314 0 93.007-15.291 125.079-45.872 33.354-29.527 50.031-68.017 50.031-115.47v-237.268H126.763V93.463Z" fill="#FF5911"/></svg>