<svg width="341" height="268" fill="none" xmlns="http://www.w3.org/2000/svg"><path d="M346.553 334.548h-467.926V585h856.05V390.809L321.162-26.61c-51.992-52.026-90.079-92.558-114.261-121.596-25.392-29.038-43.528-56.261-54.41-81.669-12.091-26.618-18.137-55.656-18.137-87.114 0-44.766 16.928-81.064 50.783-108.892 32.646-29.038 74.964-43.557 126.956-43.557 55.619 0 101.565 16.939 137.839 50.817 35.064 33.877 52.596 78.039 52.596 132.485H751c0-79.854-18.741-151.844-56.224-215.969-38.691-64.125-91.287-114.337-157.788-150.634C469.277-690.246 394.313-709 312.093-709c-87.056 0-163.23 16.939-228.522 50.816-66.5 32.668-117.888 78.04-154.161 136.115C-106.863-465.203-125-401.078-125-329.693c0 58.076 10.882 111.917 32.646 161.523C-71.8-118.563-43.385-71.982-7.112-28.425c35.064 42.347 82.22 93.163 141.466 152.449l212.199 210.524Z" fill="#5F00E2"/></svg>