<svg width="580" height="200" fill="none" xmlns="http://www.w3.org/2000/svg"><path d="M424.447 210.226h-822.074V649H1106.32V308.791l-726.481-731.29c-91.342-91.147-158.255-162.156-200.74-213.028-44.608-50.873-76.472-98.565-95.59-143.079-21.242-46.633-31.863-97.505-31.863-152.617 0-78.427 29.74-142.017 89.217-190.767 57.354-50.88 131.702-76.31 223.044-76.31 97.714 0 178.434 29.67 242.161 89.02 61.603 59.35 92.404 136.723 92.404 232.109H1135c0-139.899-32.93-266.019-98.78-378.359-67.972-112.35-160.375-200.31-277.208-263.9-118.956-65.71-250.658-98.57-395.105-98.57-152.944 0-286.77 29.68-401.478 89.03-116.833 57.23-207.112 136.72-270.839 238.46-63.727 99.63-95.59 211.97-95.59 337.031 0 101.744 19.118 196.07 57.354 282.977 36.112 86.907 86.031 168.515 149.758 244.823 61.602 74.189 144.447 163.216 248.534 267.08l372.801 368.825Z" fill="#5F00E2"/></svg>