<svg width="448" height="322" fill="none" xmlns="http://www.w3.org/2000/svg"><path fill="#000" d="M-24.91-49.591h617.178v477.2H-24.91z"/><path fill-rule="evenodd" clip-rule="evenodd" d="M346.079 525.17V324.781L241.771 223.445c-57.496 73.943-89.061 176.166-89.061 289.09 0 4.227.053 8.439.157 12.635h193.212ZM-302.459 429.603V324.78L-35.741-46.169 124.286 109.3C75.346 293.767-92.768 429.713-292.635 429.713c-3.284 0-6.559-.037-9.824-.11Z" fill="#FF5911"/><path fill-rule="evenodd" clip-rule="evenodd" d="M138.702-1.598c0-148.435-74.982-279.356-189.134-356.954l85.259-224.562L842.35-462.389l37.902 921.932-64.491-7.222c-20.441-197.058-141.69-348.285-329.972-348.285-103.542 0-186.812 45.734-244.192 119.674l-117.31-114.322c9.403-35.413 14.414-72.614 14.414-110.986Z" fill="#641AEA"/></svg>