<svg width="580" height="384" fill="none" xmlns="http://www.w3.org/2000/svg"><path d="M912.862 2216c-197.169 0-380.408-51.42-549.716-154.25-169.309-104.97-304.327-246.37-405.054-424.18C-142.636 1457.61-193 1261.59-193 1049.5c0-212.091 50.364-407.043 151.092-584.857C58.819 284.687 193.837 143.293 363.146 40.462 532.454-64.513 715.693-117 912.862-117c180.028 0 340.758 40.704 482.208 122.113 141.45 79.266 257.18 183.17 347.19 311.709 92.15 126.398 155.38 262.436 189.67 408.115h-479c-30-107.117-92.15-200.308-186.45-279.575-94.3-79.266-212.17-118.899-353.618-118.899-115.73 0-222.887 32.135-321.472 96.405-98.584 62.127-177.881 148.892-237.889 260.293-57.864 109.259-86.797 231.372-86.797 366.339 0 134.97 28.933 258.15 86.797 369.55 60.008 109.26 139.305 196.03 237.889 260.3 98.585 62.12 205.742 93.19 321.472 93.19 141.448 0 259.318-38.56 353.618-115.69 96.44-79.27 163.95-172.46 202.53-279.57H1948c-34.29 143.53-97.51 279.57-189.67 408.11-90.01 126.4-207.88 230.3-353.62 311.71-143.59 79.27-307.54 118.9-491.848 118.9Z" fill="#FF5911"/></svg>