<svg width="580" height="200" fill="none" xmlns="http://www.w3.org/2000/svg"><path d="M391.447 398.226h-822.074V837H1073.32V496.791l-726.481-731.29c-91.342-91.147-158.255-162.156-200.74-213.028-44.608-50.873-76.472-98.565-95.59-143.079-21.242-46.633-31.863-97.505-31.863-152.617 0-78.428 29.74-142.019 89.217-190.771 57.354-50.873 131.702-76.306 223.044-76.306 97.714 0 178.434 29.673 242.161 89.024 61.603 59.351 92.404 136.719 92.404 232.105H1102c0-139.899-32.93-266.02-98.78-378.359-67.972-112.35-160.375-200.31-277.208-263.9-118.956-65.71-250.658-98.57-395.105-98.57-152.944 0-286.77 29.68-401.478 89.03-116.833 57.23-207.112 136.72-270.839 238.46-63.727 99.63-95.59 211.969-95.59 337.031 0 101.744 19.118 196.07 57.354 282.977 36.112 86.907 86.031 168.515 149.758 244.823C-168.286-163.49-85.441-74.463 18.646 29.401l372.801 368.825Z" fill="#5F00E2"/></svg>