<svg width="341" height="190" fill="none" xmlns="http://www.w3.org/2000/svg"><path d="M428.516 779c-92.092 0-177.677-24.044-256.756-72.132-79.08-49.09-142.142-115.211-189.19-198.364C-64.475 424.35-88 332.682-88 233.5c0-99.182 23.524-190.349 70.57-273.501 47.048-84.155 110.11-150.276 189.19-198.364C250.839-287.455 336.424-312 428.516-312c84.084 0 159.16 19.035 225.226 57.105 66.066 37.068 120.12 85.657 162.162 145.767 43.043 59.108 72.572 122.725 88.588 190.85H680.769c-14.014-50.092-43.043-93.672-87.087-130.74-44.044-37.068-99.1-55.602-165.166-55.602-54.054 0-104.104 15.028-150.15 45.083C232.32-30.484 195.283 10.09 167.255 62.186c-27.027 51.094-40.54 108.198-40.54 171.314s13.513 120.721 40.54 172.817c28.028 51.094 65.065 91.668 111.111 121.723 46.046 29.053 96.096 43.58 150.15 43.58 66.066 0 121.122-18.033 165.166-54.099 45.045-37.068 76.576-80.648 94.594-130.74H912c-16.016 67.123-45.546 130.74-88.589 190.85-42.042 59.108-97.097 107.697-165.165 145.767C591.179 760.466 514.602 779 428.516 779Z" fill="#FF5911"/></svg>