<svg width="349" height="50" fill="none" xmlns="http://www.w3.org/2000/svg"><path d="M261.979 24.22c0 2.786-1.13 4.098-3.445 4.098-2.503 0-3.714-1.312-3.714-4.099 0-2.76 1.211-4.098 3.714-4.098 2.315 0 3.445 1.338 3.445 4.099Zm77.437 10.984c6.271 0 9.394-2.186 9.394-6.12 0-3.606-1.427-5.028-6.191-5.93l-3.419-.656c-1.75-.328-2.341-.71-2.341-1.53 0-.928.672-1.502 2.583-1.502 1.857 0 2.774.82 3.068 2.295h6.245c-.781-4.619-3.365-6.723-8.909-6.723-5.948 0-9.016 2.213-9.016 6.038 0 3.498 1.372 4.865 6.164 5.766l3.984.738c1.266.246 1.777.71 1.777 1.502 0 1.039-.834 1.639-2.826 1.639-1.857 0-2.88-.738-3.149-2.295h-6.216c.75 4.785 3.36 6.778 8.852 6.778Zm-17.63-.491h6.19V10.229h-6.19v24.484Zm-14.696.491c2.961 0 4.844-1.202 5.948-3.225v2.734h5.867V23.099c0-5.492-2.745-8.061-8.667-8.061-5.544 0-8.398 2.104-8.989 6.995h6.271c.403-1.612 1.156-2.13 2.718-2.13 1.912 0 2.693.681 2.693 2.35v.764l-5.115.219c-4.844.22-6.971 2.131-6.971 5.983 0 3.881 2.37 5.985 6.245 5.985Zm2.044-4.671c-1.346 0-2.206-.738-2.206-1.94 0-1.257.672-1.886 2.315-1.968l3.688-.19c0 2.485-1.562 4.098-3.797 4.098Zm-29.256 4.18h6.164V24.439c0-2.488 1.076-3.688 3.042-3.688 1.938 0 2.987 1.147 2.987 3.688v10.274h6.19V23.646c0-5.848-2.206-8.608-6.864-8.608-2.341 0-4.334 1.147-5.571 3.225V15.53h-5.948v19.183Zm-6.057-20.685c2.315 0 3.552-1.203 3.552-3.443 0-2.186-1.265-3.442-3.552-3.442-2.261 0-3.581 1.256-3.581 3.442.002 2.24 1.24 3.443 3.581 3.443Zm-3.094 20.685h6.164V15.532h-6.164v19.18Zm-27.912-20.685c2.341 0 3.58-1.203 3.58-3.443 0-2.186-1.318-3.442-3.58-3.442-2.263 0-3.553 1.285-3.553 3.442 0 2.24 1.238 3.443 3.553 3.443Zm-3.068 20.685h6.164V15.532h-6.164v19.18Zm-13.998 0h6.164v-8.526c0-3.144 1.212-4.455 4.118-4.455h1.076v-6.557h-.404c-2.234 0-3.581.902-5.006 3.252V15.53h-5.948v19.183Zm-12.435-4.865c-2.341 0-3.552-1.393-3.552-4.727 0-3.334 1.211-4.727 3.552-4.727 2.315 0 3.526 1.393 3.526 4.727 0 3.334-1.211 4.727-3.526 4.727Zm0 5.356c6.487 0 9.717-3.251 9.717-10.083 0-6.858-3.23-10.083-9.717-10.083-6.513 0-9.742 3.225-9.742 10.083 0 6.832 3.229 10.083 9.742 10.083Zm35.584-.875c.539 4.482 3.096 6.147 9.448 6.147 6.865 0 9.394-2.376 9.394-8.907V15.53h-5.975v2.515c-1.372-1.994-3.283-3.006-5.76-3.006-4.953 0-7.401 3.088-7.401 9.346 0 5.655 2.531 8.608 7.401 8.608 2.638 0 4.737-.82 5.76-2.242v1.911c0 1.994-1.237 3.115-3.419 3.115-1.911 0-2.773-.383-3.284-1.449h-6.164v.002ZM147.577 36.953l-12.385-12.281 11.544-11.627a.438.438 0 0 0-.311-.747h-12.242l-10.425 10.819v-10.82h-11.169v25.406h11.169v-11.06l10.863 11.06h12.645a.438.438 0 0 0 .311-.75ZM96.472 12.298v13.074L84.208 12.298H73.586v25.405h10.622V24.628l12.264 13.075h10.644V12.297H96.472ZM43.363 12.298 38.195 27.78l-5.431-15.483H20.937L15.506 27.78l-5.169-15.483H.438c-.3 0-.512.295-.414.58L8.52 37.702h12.987L26.74 22.81l5.234 14.892h12.987l8.497-24.826a.439.439 0 0 0-.413-.58h-9.683v.002ZM68.11 12.298H56.943v25.405H68.11V12.297Z" fill="#fff"/><path d="m168.932.366-10.974 10.977a1.247 1.247 0 0 0 0 1.765l11.859 11.86-11.916 11.924a1.25 1.25 0 0 0 0 1.765l10.977 10.977a1.246 1.246 0 0 0 1.765 0l23.779-23.78a1.245 1.245 0 0 0 0-1.765L170.697.366a1.246 1.246 0 0 0-1.765 0Z" fill="url('#paint0_linear_1624_430')"/><defs><linearGradient id="paint0_linear_1624_430" x1="145.527" y1="33.991" x2="205.68" y2="11.698" gradientUnits="userSpaceOnUse"><stop stop-color="#FF9532"/><stop offset=".167" stop-color="#FF8A1C"/><stop offset=".508" stop-color="#FF5B21"/><stop offset=".793" stop-color="#FF5A24"/></linearGradient></defs></svg>