<svg width="195" height="50" viewBox="0 0 195 50" fill="none" xmlns="http://www.w3.org/2000/svg">
<path d="M147.577 36.9535L135.192 24.6716L146.736 13.0447C147.01 12.7687 146.815 12.2979 146.425 12.2979H134.183L123.758 23.1167V12.2979H112.589V37.7025H123.758V26.6427L134.621 37.7025H147.266C147.66 37.7025 147.855 37.2272 147.577 36.9535Z" fill="white"></path>
<path d="M96.472 12.2979V25.3725L84.2077 12.2979H73.5859V37.7025H84.2077V24.6278L96.472 37.7025H107.116V12.2979H96.472Z" fill="white"></path>
<path d="M43.3633 12.2976L38.1948 27.7813L32.7635 12.2976H20.9372L15.5059 27.7813L10.3374 12.2976H0.438318C0.138281 12.2976 -0.0741543 12.5933 0.024398 12.878L8.51961 37.7022H21.5066L26.7408 22.8099L31.9751 37.7022H44.9621L53.4595 12.8758C53.5559 12.5911 53.3456 12.2954 53.0456 12.2954H43.3633V12.2976Z" fill="white"></path>
<path d="M68.1112 12.2979H56.9419V37.7025H68.1112V12.2979Z" fill="white"></path>
<path d="M168.933 0.366286L157.958 11.3428C157.47 11.8312 157.47 12.6196 157.958 13.108L169.817 24.9671L157.901 36.892C157.415 37.3804 157.415 38.1688 157.901 38.6572L168.878 49.6337C169.366 50.1221 170.157 50.1221 170.643 49.6337L194.423 25.8541C194.911 25.3657 194.911 24.5751 194.423 24.0889L170.698 0.366286C170.212 -0.122095 169.421 -0.122095 168.933 0.366286Z" fill="url('#paint0_linear_1975_453')"></path>
<defs>
<linearGradient id="paint0_linear_1975_453" x1="145.527" y1="33.9909" x2="205.68" y2="11.698" gradientUnits="userSpaceOnUse">
<stop stop-color="#FF9532"></stop>
<stop offset="0.1669" stop-color="#FF8A1C"></stop>
<stop offset="0.5077" stop-color="#FF5B21"></stop>
<stop offset="0.7932" stop-color="#FF5A24"></stop>
</linearGradient>
</defs>
</svg>
