<svg width="240" height="58" fill="none" xmlns="http://www.w3.org/2000/svg"><path d="m181.833 42.865-15.261-14.247 14.226-13.488c.338-.32.096-.866-.384-.866h-15.083l-12.845 12.55v-12.55h-13.762v29.47h13.762v-12.83l13.383 12.83h15.582c.483 0 .723-.548.38-.87h.002ZM118.866 14.264v15.167l-15.113-15.167H90.668v29.47h13.085V28.569l15.113 15.167h13.113v-29.47h-13.113ZM53.43 14.264 47.06 32.226 40.37 14.264H25.8l-6.692 17.962-6.368-17.962H.54c-.371 0-.63.344-.51.672l10.468 28.799H26.5l6.45-17.276 6.449 17.276H55.4L65.87 14.936c.12-.329-.141-.672-.51-.672H53.43ZM83.92 14.264H70.159v29.47h13.763v-29.47Z" fill="#fff"/><path d="M208.145.424 194.62 13.157a1.39 1.39 0 0 0 0 2.048l14.612 13.757-14.682 13.833a1.39 1.39 0 0 0 0 2.048l13.524 12.733c.6.565 1.576.565 2.176 0l29.299-27.585a1.389 1.389 0 0 0 0-2.048L210.321.423a1.609 1.609 0 0 0-2.176 0Z" fill="#FF5911"/></svg>