<svg width="195" height="50" fill="none" xmlns="http://www.w3.org/2000/svg"><path d="m147.577 36.953-12.385-12.281 11.544-11.627a.438.438 0 0 0-.311-.747h-12.242l-10.425 10.819v-10.82h-11.169v25.406h11.169v-11.06l10.863 11.06h12.645a.438.438 0 0 0 .311-.75ZM96.472 12.298v13.074L84.208 12.298H73.586v25.405h10.622V24.628l12.264 13.075h10.644V12.297H96.472ZM43.363 12.298 38.195 27.78l-5.431-15.483H20.937L15.506 27.78l-5.169-15.483H.438c-.3 0-.512.295-.414.58L8.52 37.702h12.987L26.74 22.81l5.234 14.892h12.987l8.497-24.826a.439.439 0 0 0-.413-.58h-9.683v.002ZM68.111 12.298h-11.17v25.405h11.17V12.297Z" fill="#fff"/><path d="m168.933.366-10.975 10.977a1.247 1.247 0 0 0 0 1.765l11.859 11.86-11.916 11.924a1.25 1.25 0 0 0 0 1.765l10.977 10.977a1.246 1.246 0 0 0 1.765 0l23.78-23.78a1.247 1.247 0 0 0 0-1.765L170.698.366a1.246 1.246 0 0 0-1.765 0Z" fill="url('#paint0_linear_1975_453')"/><defs><linearGradient id="paint0_linear_1975_453" x1="145.527" y1="33.991" x2="205.68" y2="11.698" gradientUnits="userSpaceOnUse"><stop stop-color="#FF9532"/><stop offset=".167" stop-color="#FF8A1C"/><stop offset=".508" stop-color="#FF5B21"/><stop offset=".793" stop-color="#FF5A24"/></linearGradient></defs></svg>