<svg width="145" height="36" fill="none" xmlns="http://www.w3.org/2000/svg"><path d="m109.858 25.898-9.22-8.608 8.594-8.149c.205-.194.059-.523-.232-.523h-9.112l-7.76 7.582V8.618h-8.316v17.805h8.315v-7.751l8.086 7.751h9.414c.292 0 .437-.332.229-.525h.002ZM71.815 8.618v9.164l-9.131-9.164h-7.906v17.805h7.906V17.26l9.13 9.163h7.923V8.618h-7.922ZM32.28 8.618 28.433 19.47 24.39 8.618h-8.803L11.544 19.47 7.697 8.618H.327c-.225 0-.382.207-.31.406l6.325 17.4h9.668l3.897-10.438 3.896 10.437h9.668l6.325-17.399c.072-.199-.085-.406-.308-.406H32.28ZM50.702 8.618h-8.315v17.805h8.315V8.618Z" fill="#fff"/><path d="m125.754.256-8.171 7.693a.84.84 0 0 0 0 1.238l8.828 8.31-8.871 8.358a.84.84 0 0 0 0 1.238l8.172 7.693a.97.97 0 0 0 1.314 0l17.702-16.667a.84.84 0 0 0 0-1.237L127.069.256a.972.972 0 0 0-1.315 0Z" fill="#1F2229"/></svg>