<?xml version="1.0" encoding="UTF-8"?>
<svg width="98px" height="98px" viewBox="0 0 98 98" version="1.1" xmlns="http://www.w3.org/2000/svg" xmlns:xlink="http://www.w3.org/1999/xlink">
    <!-- Generator: Sketch 52.6 (67491) - http://www.bohemiancoding.com/sketch -->
    <title>Icons/Stores/AppStore/Active</title>
    <desc>Created with Sketch.</desc>
    <g id="Icons/Stores/AppStore/Active" stroke="none" stroke-width="1" fill="none" fill-rule="evenodd">
        <rect id="bg-active" fill="#252230" x="0" y="0" width="98" height="98"></rect>
        <path d="M69.077825,61.8543845 C68.2878499,63.7770892 67.3527774,65.5469287 66.269383,67.1740939 C64.7926132,69.392338 63.5834677,70.9277842 62.6516195,71.7804324 C61.2070937,73.1799983 59.6593874,73.8967663 58.0020519,73.9375304 C56.8122527,73.9375304 55.3774,73.5808449 53.7071669,72.8572829 C52.0314524,72.1371179 50.4914847,71.7804324 49.0833944,71.7804324 C47.6066247,71.7804324 46.0228052,72.1371179 44.3287117,72.8572829 C42.6320387,73.5808449 41.2652206,73.9579124 40.2201964,73.9952795 C38.6308955,74.0666166 37.0467536,73.3294665 35.4655137,71.7804324 C34.4562802,70.8530501 33.1939323,69.2632519 31.6816943,67.0110377 C30.0591822,64.6059584 28.7252528,61.8170175 27.6802286,58.6374211 C26.5610435,55.2030493 26,51.8773816 26,48.6577005 C26,44.9695725 26.7564414,41.7886173 28.2715814,39.1229877 C29.4623479,36.9818556 31.0464898,35.2928648 33.0291661,34.0529581 C35.0118423,32.8130514 37.1541258,32.1812085 39.4611754,32.1407841 C40.7235234,32.1407841 42.3789242,32.5521614 44.4360838,33.3606485 C46.4874395,34.1718533 47.8046021,34.5832305 48.38209,34.5832305 C48.8138356,34.5832305 50.2770629,34.1022147 52.7575846,33.1432402 C55.103327,32.2539044 57.0831013,31.8856691 58.7049685,32.0307212 C63.0998095,32.4043917 66.4015829,34.2296023 68.5973912,37.5179029 C64.6668621,40.0269306 62.7225561,43.541132 62.7612487,48.049297 C62.796717,51.5607808 64.0058625,54.4828843 66.3822366,56.8030385 C67.4591822,57.879889 68.6618789,58.7121552 70,59.303234 C69.7098051,60.1898522 69.4034882,61.0391034 69.077825,61.8543845 Z M59,21.0137828 C59,23.5481148 58.045693,25.9144109 56.1435271,28.1046322 C53.8480319,30.7083743 51.0715144,32.2129394 48.0606114,31.9755247 C48.0222457,31.6714837 48,31.3514899 48,31.0152305 C48,28.5822769 49.0916498,25.9785348 51.0302471,23.8496221 C51.9980949,22.7717154 53.229022,21.8754513 54.7217386,21.1604857 C56.2112313,20.4561866 57.6201237,20.0666888 58.9451918,20 C58.9838799,20.338793 59,20.6776173 59,21.0137515 L59,21.0137828 Z" id="apple-logo" fill="#FFFFFF"></path>
    </g>
</svg>