<?xml version="1.0" encoding="UTF-8"?>
<svg width="14px" height="14px" viewBox="0 0 14 14" version="1.1" xmlns="http://www.w3.org/2000/svg" xmlns:xlink="http://www.w3.org/1999/xlink">
    <!-- Generator: Sketch 52.6 (67491) - http://www.bohemiancoding.com/sketch -->
    <title>label-group</title>
    <desc>Created with Sketch.</desc>
    <defs>
        <rect id="path-1" x="0" y="0" width="14" height="14"></rect>
    </defs>
    <g id="Symbols" stroke="none" stroke-width="1" fill="none" fill-rule="evenodd">
        <g id="UI-Elements/Theme-Switcher/Mobile" transform="translate(-7.000000, -6.000000)">
            <g id="label-group" transform="translate(7.000000, 4.000000)">
                <g id="mobile-icon" transform="translate(0.000000, 2.000000)">
                    <g>
                        <mask id="mask-2" fill="white">
                            <use xlink:href="#path-1"></use>
                        </mask>
                        <g id="Mask"></g>
                        <path d="M4,11 L10,11 L10,3 L4,3 L4,11 Z M4,12 C4,12.5522847 4.44771525,13 5,13 L9,13 C9.55228475,13 10,12.5522847 10,12 L4,12 Z M4,2 L10,2 C10,1.44771525 9.55228475,1 9,1 L5,1 C4.44771525,1 4,1.44771525 4,2 Z M5,0 L9,0 C10.1045695,-2.02906125e-16 11,0.8954305 11,2 L11,12 C11,13.1045695 10.1045695,14 9,14 L5,14 C3.8954305,14 3,13.1045695 3,12 L3,2 C3,0.8954305 3.8954305,2.02906125e-16 5,0 Z" fill="#1F2229" mask="url(#mask-2)"></path>
                    </g>
                </g>
            </g>
        </g>
    </g>
</svg>