<?xml version="1.0" encoding="UTF-8"?>
<svg width="14px" height="13px" viewBox="0 0 14 13" version="1.1" xmlns="http://www.w3.org/2000/svg" xmlns:xlink="http://www.w3.org/1999/xlink">
    <!-- Generator: sketchtool 52.6 (67491) - http://www.bohemiancoding.com/sketch -->
    <title>3AD1FC26-156B-45D0-86FB-B32595C65870</title>
    <desc>Created with sketchtool.</desc>
    <g id="Symbols" stroke="none" stroke-width="1" fill="none" fill-rule="evenodd">
        <g id="UI-Elements/Theme-Switcher/Desktop" transform="translate(-9.000000, -8.000000)" fill="#1F2229">
            <g id="label-group" transform="translate(9.000000, 4.000000)">
                <path d="M1,10.9494419 L13,10.9494419 L13,5.98555483 C13,5.437259 12.5522847,4.99277741 12,4.99277741 L2,4.99277741 C1.44771525,4.99277741 1,5.437259 1,5.98555483 L1,10.9494419 Z M1.00002591,11.9494419 C1.00393708,12.4944132 1.45014232,12.9349967 2,12.9349967 L12,12.9349967 C12.5498577,12.9349967 12.9960629,12.4944132 12.9999741,11.9494419 L1.00002221,11.9494419 Z M6.44,15.0072226 L6.44,13.9277741 L2,13.9277741 C0.8954305,13.9277741 1.3527075e-16,13.038811 0,11.9422193 L0,5.98555483 C-1.3527075e-16,4.88896318 0.8954305,4 2,4 L12,4 C13.1045695,4 14,4.88896318 14,5.98555483 L14,11.9422193 C14,13.038811 13.1045695,13.9277741 12,13.9277741 L7.44,13.9277741 L7.44,15.0072226 L9.5,15.0072226 C9.77614237,15.0072226 10,15.2310802 10,15.5072226 C10,15.783365 9.77614237,16.0072226 9.5,16.0072226 L4.5,16.0072226 C4.22385763,16.0072226 4,15.783365 4,15.5072226 C4,15.2310802 4.22385763,15.0072226 4.5,15.0072226 L6.44,15.0072226 Z" id="desktop-icon"></path>
            </g>
        </g>
    </g>
</svg>