<svg width="22" height="22" viewBox="0 0 22 22" fill="none" xmlns="http://www.w3.org/2000/svg">
<path fill-rule="evenodd" clip-rule="evenodd" d="M11 2.0625C7.57444 2.1001 4.8125 4.885 4.8125 8.31455C4.8125 8.33228 4.8125 8.35054 4.8125 8.36827C4.8125 11.7006 10.352 18.7504 10.5879 19.0485C10.6846 19.1716 10.8329 19.25 11 19.25C11.1671 19.25 11.3154 19.1716 11.4111 19.0496C11.648 18.7504 17.1875 11.7006 17.1875 8.36559C17.1875 8.35054 17.1875 8.33282 17.1875 8.31455C17.1875 4.88446 14.425 2.1001 11.0032 2.0625H11ZM11 17.8398C9.25847 15.5486 5.87107 10.624 5.87107 8.36559C5.87053 8.33873 5.86999 8.30649 5.86999 8.2748C5.86999 5.44209 8.16659 3.14605 11 3.14605C13.8334 3.14605 16.13 5.44209 16.13 8.2748C16.13 8.30649 16.1295 8.33873 16.1289 8.37042C16.1289 10.6229 12.741 15.5465 10.9995 17.8387L11 17.8398ZM11 5.64515C10.9839 5.64462 10.9651 5.64462 10.9463 5.64462C9.37346 5.64462 8.09835 6.91942 8.09835 8.49183C8.09835 10.0642 9.37346 11.339 10.9463 11.339C12.5191 11.339 13.7936 10.0648 13.7942 8.49237C13.7942 8.48485 13.7942 8.47571 13.7942 8.46658C13.7942 6.9178 12.547 5.65966 11.0016 5.64247L11 5.64515ZM11 10.2603C10.9903 10.2603 10.9785 10.2609 10.9667 10.2609C9.98926 10.2609 9.19722 9.46902 9.19722 8.49183C9.19722 7.51465 9.98926 6.7228 10.9667 6.7228C11.9441 6.7228 12.7362 7.51465 12.7362 8.49183C12.7362 8.49237 12.7362 8.49237 12.7362 8.4929C12.7362 8.49613 12.7362 8.50043 12.7362 8.50419C12.7362 9.46633 11.9608 10.248 11.0011 10.2582L11 10.2603Z" fill="#65707B"/>
</svg>
