<?xml version="1.0" encoding="UTF-8"?>
<svg width="32px" height="64px" viewBox="0 0 32 64" version="1.1" xmlns="http://www.w3.org/2000/svg" xmlns:xlink="http://www.w3.org/1999/xlink">
    <!-- Generator: Sketch 49.1 (51147) - http://www.bohemiancoding.com/sketch -->
    <title>Icons/Sprites/instagram</title>
    <desc>Created with Sketch.</desc>
    <defs></defs>
    <g id="Icons/Sprites/instagram" stroke="none" stroke-width="1" fill="none" fill-rule="evenodd">
        <g id="instagram-unactive" transform="translate(2.000000, 34.000000)">
            <circle id="bg-unactive" fill="#C1C9DA" cx="14" cy="14" r="14"></circle>
            <path d="M13.9978056,7.00441667 C15.8982778,7.00441667 16.1365833,7.01247222 16.8829722,7.04652778 C17.6278056,7.0805 18.1365,7.19880556 18.5816111,7.37180556 C19.0417778,7.55061111 19.4320278,7.78988889 19.8210833,8.17891667 C20.2101111,8.56797222 20.4493889,8.95822222 20.6282222,9.41838889 C20.8011944,9.8635 20.9195,10.3721944 20.9534722,11.1170278 C20.9875278,11.8634167 20.9955833,12.1017222 20.9955833,14.0022222 C20.9955833,15.9026944 20.9875278,16.141 20.9534722,16.8873889 C20.9195,17.6322222 20.8011944,18.1409167 20.6282222,18.5860278 C20.4493889,19.0461944 20.2101111,19.4364444 19.8210833,19.8255 C19.4320278,20.2145278 19.0417778,20.4538056 18.5816111,20.6326389 C18.1365,20.8056111 17.6278056,20.9239167 16.8829722,20.9578889 C16.1365833,20.9919444 15.8982778,21 13.9978056,21 C12.0973056,21 11.859,20.9919444 11.1126111,20.9578889 C10.3677778,20.9239167 9.85908333,20.8056111 9.41397222,20.6326389 C8.95380556,20.4538056 8.56355556,20.2145278 8.1745,19.8255 C7.78547222,19.4364444 7.54619444,19.0461944 7.36738889,18.5860278 C7.19438889,18.1409167 7.07608333,17.6322222 7.04211111,16.8873889 C7.00805556,16.141 7,15.9026944 7,14.0022222 C7,12.1017222 7.00805556,11.8634167 7.04211111,11.1170278 C7.07608333,10.3721944 7.19438889,9.8635 7.36738889,9.41838889 C7.54619444,8.95822222 7.78547222,8.56797222 8.1745,8.17891667 C8.56355556,7.78988889 8.95380556,7.55061111 9.41397222,7.37180556 C9.85908333,7.19880556 10.3677778,7.0805 11.1126111,7.04652778 C11.859,7.01247222 12.0973056,7.00441667 13.9978056,7.00441667 Z M13.9978056,8.26527778 C12.1293056,8.26527778 11.9079722,8.27241667 11.1700833,8.30608333 C10.4878056,8.33719444 10.1172778,8.45119444 9.87069444,8.54702778 C9.54405556,8.67397222 9.31094444,8.82561111 9.06608333,9.0705 C8.82119444,9.31536111 8.66955556,9.54847222 8.54261111,9.87511111 C8.44677778,10.1216944 8.33277778,10.4922222 8.30166667,11.1745 C8.268,11.9123889 8.26086111,12.1337222 8.26086111,14.0022222 C8.26086111,15.8706944 8.268,16.0920278 8.30166667,16.8299167 C8.33277778,17.5121944 8.44677778,17.8827222 8.54261111,18.1293056 C8.66955556,18.4559444 8.82122222,18.6890556 9.06608333,18.9339167 C9.31094444,19.1788056 9.54405556,19.3304444 9.87069444,19.4573889 C10.1172778,19.5532222 10.4878056,19.6672222 11.1700833,19.6983333 C11.9078889,19.732 12.1291667,19.7391389 13.9978056,19.7391389 C15.8664167,19.7391389 16.0877222,19.732 16.8255,19.6983333 C17.5077778,19.6672222 17.8783056,19.5532222 18.1248889,19.4573889 C18.4515278,19.3304444 18.6846389,19.1788056 18.9295,18.9339167 C19.1743889,18.6890556 19.3260278,18.4559444 19.4529722,18.1293056 C19.5488056,17.8827222 19.6628056,17.5121944 19.6939167,16.8299167 C19.7275833,16.0920278 19.7347222,15.8706944 19.7347222,14.0022222 C19.7347222,12.1337222 19.7275833,11.9123889 19.6939167,11.1745 C19.6628056,10.4922222 19.5488056,10.1216944 19.4529722,9.87511111 C19.3260278,9.54847222 19.1743889,9.31536111 18.9295,9.0705 C18.6846389,8.82561111 18.4515278,8.67397222 18.1248889,8.54702778 C17.8783056,8.45119444 17.5077778,8.33719444 16.8255,8.30608333 C16.0876111,8.27241667 15.8662778,8.26527778 13.9978056,8.26527778 Z M13.9978056,10.40875 C15.9824167,10.40875 17.59125,12.0175833 17.59125,14.0022222 C17.59125,15.9868333 15.9824167,17.5956667 13.9978056,17.5956667 C12.0131667,17.5956667 10.4043333,15.9868333 10.4043333,14.0022222 C10.4043333,12.0175833 12.0131667,10.40875 13.9978056,10.40875 Z M13.9978056,16.3348056 C15.2860556,16.3348056 16.3303889,15.2904722 16.3303889,14.0022222 C16.3303889,12.7139444 15.2860556,11.6696111 13.9978056,11.6696111 C12.7095278,11.6696111 11.6651944,12.7139444 11.6651944,14.0022222 C11.6651944,15.2904722 12.7095278,16.3348056 13.9978056,16.3348056 Z M18.5729722,10.2667778 C18.5729722,10.7305556 18.197,11.1065 17.7332222,11.1065 C17.2694722,11.1065 16.8935,10.7305556 16.8935,10.2667778 C16.8935,9.803 17.2694722,9.42702778 17.7332222,9.42702778 C18.197,9.42702778 18.5729722,9.803 18.5729722,10.2667778 Z" id="Combined-Shape" fill="#FFFFFF"></path>
        </g>
        <g id="instagram-active" transform="translate(2.000000, 2.000000)">
            <circle id="bg-active" fill="#E1306C" cx="14" cy="14" r="14"></circle>
            <path d="M13.9978056,7.00441667 C15.8982778,7.00441667 16.1365833,7.01247222 16.8829722,7.04652778 C17.6278056,7.0805 18.1365,7.19880556 18.5816111,7.37180556 C19.0417778,7.55061111 19.4320278,7.78988889 19.8210833,8.17891667 C20.2101111,8.56797222 20.4493889,8.95822222 20.6282222,9.41838889 C20.8011944,9.8635 20.9195,10.3721944 20.9534722,11.1170278 C20.9875278,11.8634167 20.9955833,12.1017222 20.9955833,14.0022222 C20.9955833,15.9026944 20.9875278,16.141 20.9534722,16.8873889 C20.9195,17.6322222 20.8011944,18.1409167 20.6282222,18.5860278 C20.4493889,19.0461944 20.2101111,19.4364444 19.8210833,19.8255 C19.4320278,20.2145278 19.0417778,20.4538056 18.5816111,20.6326389 C18.1365,20.8056111 17.6278056,20.9239167 16.8829722,20.9578889 C16.1365833,20.9919444 15.8982778,21 13.9978056,21 C12.0973056,21 11.859,20.9919444 11.1126111,20.9578889 C10.3677778,20.9239167 9.85908333,20.8056111 9.41397222,20.6326389 C8.95380556,20.4538056 8.56355556,20.2145278 8.1745,19.8255 C7.78547222,19.4364444 7.54619444,19.0461944 7.36738889,18.5860278 C7.19438889,18.1409167 7.07608333,17.6322222 7.04211111,16.8873889 C7.00805556,16.141 7,15.9026944 7,14.0022222 C7,12.1017222 7.00805556,11.8634167 7.04211111,11.1170278 C7.07608333,10.3721944 7.19438889,9.8635 7.36738889,9.41838889 C7.54619444,8.95822222 7.78547222,8.56797222 8.1745,8.17891667 C8.56355556,7.78988889 8.95380556,7.55061111 9.41397222,7.37180556 C9.85908333,7.19880556 10.3677778,7.0805 11.1126111,7.04652778 C11.859,7.01247222 12.0973056,7.00441667 13.9978056,7.00441667 Z M13.9978056,8.26527778 C12.1293056,8.26527778 11.9079722,8.27241667 11.1700833,8.30608333 C10.4878056,8.33719444 10.1172778,8.45119444 9.87069444,8.54702778 C9.54405556,8.67397222 9.31094444,8.82561111 9.06608333,9.0705 C8.82119444,9.31536111 8.66955556,9.54847222 8.54261111,9.87511111 C8.44677778,10.1216944 8.33277778,10.4922222 8.30166667,11.1745 C8.268,11.9123889 8.26086111,12.1337222 8.26086111,14.0022222 C8.26086111,15.8706944 8.268,16.0920278 8.30166667,16.8299167 C8.33277778,17.5121944 8.44677778,17.8827222 8.54261111,18.1293056 C8.66955556,18.4559444 8.82122222,18.6890556 9.06608333,18.9339167 C9.31094444,19.1788056 9.54405556,19.3304444 9.87069444,19.4573889 C10.1172778,19.5532222 10.4878056,19.6672222 11.1700833,19.6983333 C11.9078889,19.732 12.1291667,19.7391389 13.9978056,19.7391389 C15.8664167,19.7391389 16.0877222,19.732 16.8255,19.6983333 C17.5077778,19.6672222 17.8783056,19.5532222 18.1248889,19.4573889 C18.4515278,19.3304444 18.6846389,19.1788056 18.9295,18.9339167 C19.1743889,18.6890556 19.3260278,18.4559444 19.4529722,18.1293056 C19.5488056,17.8827222 19.6628056,17.5121944 19.6939167,16.8299167 C19.7275833,16.0920278 19.7347222,15.8706944 19.7347222,14.0022222 C19.7347222,12.1337222 19.7275833,11.9123889 19.6939167,11.1745 C19.6628056,10.4922222 19.5488056,10.1216944 19.4529722,9.87511111 C19.3260278,9.54847222 19.1743889,9.31536111 18.9295,9.0705 C18.6846389,8.82561111 18.4515278,8.67397222 18.1248889,8.54702778 C17.8783056,8.45119444 17.5077778,8.33719444 16.8255,8.30608333 C16.0876111,8.27241667 15.8662778,8.26527778 13.9978056,8.26527778 Z M13.9978056,10.40875 C15.9824167,10.40875 17.59125,12.0175833 17.59125,14.0022222 C17.59125,15.9868333 15.9824167,17.5956667 13.9978056,17.5956667 C12.0131667,17.5956667 10.4043333,15.9868333 10.4043333,14.0022222 C10.4043333,12.0175833 12.0131667,10.40875 13.9978056,10.40875 Z M13.9978056,16.3348056 C15.2860556,16.3348056 16.3303889,15.2904722 16.3303889,14.0022222 C16.3303889,12.7139444 15.2860556,11.6696111 13.9978056,11.6696111 C12.7095278,11.6696111 11.6651944,12.7139444 11.6651944,14.0022222 C11.6651944,15.2904722 12.7095278,16.3348056 13.9978056,16.3348056 Z M18.5729722,10.2667778 C18.5729722,10.7305556 18.197,11.1065 17.7332222,11.1065 C17.2694722,11.1065 16.8935,10.7305556 16.8935,10.2667778 C16.8935,9.803 17.2694722,9.42702778 17.7332222,9.42702778 C18.197,9.42702778 18.5729722,9.803 18.5729722,10.2667778 Z" id="Combined-Shape" fill="#FFFFFF"></path>
        </g>
    </g>
</svg>