<?xml version="1.0" encoding="UTF-8"?>
<svg width="32px" height="64px" viewBox="0 0 32 64" version="1.1" xmlns="http://www.w3.org/2000/svg" xmlns:xlink="http://www.w3.org/1999/xlink">
    <!-- Generator: Sketch 49.1 (51147) - http://www.bohemiancoding.com/sketch -->
    <title>Icons/Sprites/ok</title>
    <desc>Created with Sketch.</desc>
    <defs></defs>
    <g id="Icons/Sprites/ok" stroke="none" stroke-width="1" fill="none" fill-rule="evenodd">
        <g id="ok-unactive-small" transform="translate(2.000000, 34.000000)">
            <circle id="Oval" fill="#C1C9DA" cx="14" cy="14" r="14"></circle>
            <path d="M13.6009862,7.77778982 C15.3426219,7.78254639 16.7405041,9.20713854 16.7315398,10.9679835 C16.7227584,12.6882146 15.3020081,14.0824379 13.5632995,14.0765837 C11.8423366,14.0707294 10.4309165,12.6439419 10.4411614,10.9202348 C10.4508575,9.1776844 11.8630094,7.77303325 13.6009862,7.77778982 Z M17.1285303,15.3140231 C16.7434312,15.7093671 16.2798488,15.995493 15.7650417,16.1950859 C15.2784082,16.3837021 14.7451238,16.4786505 14.2171447,16.5419495 C14.2970917,16.6286654 14.3345954,16.6712916 14.3843564,16.7210526 C15.1007687,17.4413067 15.820657,18.157902 16.5346911,18.8801686 C16.7780078,19.1264125 16.8286835,19.4315646 16.6947679,19.7175075 C16.5485949,20.0303434 16.2205746,20.2359735 15.8987745,20.2138371 C15.6949738,20.1997504 15.5359947,20.0985818 15.3949442,19.9564336 C14.854159,19.4123554 14.3031288,18.8779733 13.7736862,18.3236501 C13.6190978,18.1622927 13.545188,18.1930275 13.408894,18.3331633 C12.8649988,18.8933406 12.3121392,19.4445537 11.7561696,19.9928396 C11.5064497,20.2390835 11.2093472,20.2837221 10.9195624,20.1428545 C10.6116661,19.9939373 10.415915,19.679455 10.4309165,19.3631432 C10.4415273,19.1498294 10.5465377,18.9862767 10.6932595,18.8402866 C11.402537,18.1324727 12.1096192,17.4224634 12.8168842,16.713003 C12.8639011,16.6659861 12.907442,16.6160422 12.9756804,16.5428642 C12.0110118,16.4420616 11.1411087,16.204599 10.3963399,15.6222853 C10.3037698,15.5498392 10.2084555,15.4799542 10.1243008,15.3987266 C9.79811001,15.0857079 9.76536287,14.7269529 10.0231323,14.35777 C10.2439468,14.0416412 10.6142273,13.9571206 10.9993264,14.1387849 C11.0739679,14.1737274 11.1449506,14.2180001 11.2130061,14.264834 C12.6008263,15.2185259 14.5074783,15.244687 15.9007869,14.3074602 C16.0387274,14.2020839 16.1863639,14.115368 16.3574174,14.0716441 C16.6896454,13.9860259 16.99992,14.1084161 17.1781084,14.3992985 C17.382092,14.7317094 17.3797137,15.0558878 17.1285303,15.3140231 Z M13.5881755,9.54920283 C12.7785928,9.54920283 12.1223008,10.2055248 12.1223008,11.0150775 C12.1223008,11.8246302 12.7785928,12.4809521 13.5881755,12.4809521 C14.3977582,12.4809521 15.0540501,11.8246302 15.0540501,11.0150775 C15.0540501,10.2055248 14.3977582,9.54920283 13.5881755,9.54920283 Z" id="Shape" fill="#FEFEFE" fill-rule="nonzero"></path>
        </g>
        <g id="ok" transform="translate(2.000000, 2.000000)">
            <circle id="Oval" fill="#ED812B" cx="14" cy="14" r="14"></circle>
            <path d="M13.6009862,7.77778982 C15.3426219,7.78254639 16.7405041,9.20713854 16.7315398,10.9679835 C16.7227584,12.6882146 15.3020081,14.0824379 13.5632995,14.0765837 C11.8423366,14.0707294 10.4309165,12.6439419 10.4411614,10.9202348 C10.4508575,9.1776844 11.8630094,7.77303325 13.6009862,7.77778982 Z M17.1285303,15.3140231 C16.7434312,15.7093671 16.2798488,15.995493 15.7650417,16.1950859 C15.2784082,16.3837021 14.7451238,16.4786505 14.2171447,16.5419495 C14.2970917,16.6286654 14.3345954,16.6712916 14.3843564,16.7210526 C15.1007687,17.4413067 15.820657,18.157902 16.5346911,18.8801686 C16.7780078,19.1264125 16.8286835,19.4315646 16.6947679,19.7175075 C16.5485949,20.0303434 16.2205746,20.2359735 15.8987745,20.2138371 C15.6949738,20.1997504 15.5359947,20.0985818 15.3949442,19.9564336 C14.854159,19.4123554 14.3031288,18.8779733 13.7736862,18.3236501 C13.6190978,18.1622927 13.545188,18.1930275 13.408894,18.3331633 C12.8649988,18.8933406 12.3121392,19.4445537 11.7561696,19.9928396 C11.5064497,20.2390835 11.2093472,20.2837221 10.9195624,20.1428545 C10.6116661,19.9939373 10.415915,19.679455 10.4309165,19.3631432 C10.4415273,19.1498294 10.5465377,18.9862767 10.6932595,18.8402866 C11.402537,18.1324727 12.1096192,17.4224634 12.8168842,16.713003 C12.8639011,16.6659861 12.907442,16.6160422 12.9756804,16.5428642 C12.0110118,16.4420616 11.1411087,16.204599 10.3963399,15.6222853 C10.3037698,15.5498392 10.2084555,15.4799542 10.1243008,15.3987266 C9.79811001,15.0857079 9.76536287,14.7269529 10.0231323,14.35777 C10.2439468,14.0416412 10.6142273,13.9571206 10.9993264,14.1387849 C11.0739679,14.1737274 11.1449506,14.2180001 11.2130061,14.264834 C12.6008263,15.2185259 14.5074783,15.244687 15.9007869,14.3074602 C16.0387274,14.2020839 16.1863639,14.115368 16.3574174,14.0716441 C16.6896454,13.9860259 16.99992,14.1084161 17.1781084,14.3992985 C17.382092,14.7317094 17.3797137,15.0558878 17.1285303,15.3140231 Z M13.5881755,9.54920283 C12.7785928,9.54920283 12.1223008,10.2055248 12.1223008,11.0150775 C12.1223008,11.8246302 12.7785928,12.4809521 13.5881755,12.4809521 C14.3977582,12.4809521 15.0540501,11.8246302 15.0540501,11.0150775 C15.0540501,10.2055248 14.3977582,9.54920283 13.5881755,9.54920283 Z" id="Shape" fill="#FEFEFE" fill-rule="nonzero"></path>
        </g>
    </g>
</svg>