<?xml version="1.0" encoding="UTF-8"?>
<svg width="32px" height="64px" viewBox="0 0 32 64" version="1.1" xmlns="http://www.w3.org/2000/svg" xmlns:xlink="http://www.w3.org/1999/xlink">
    <!-- Generator: Sketch 49.1 (51147) - http://www.bohemiancoding.com/sketch -->
    <title>Icons/Sprites/tamtam</title>
    <desc>Created with Sketch.</desc>
    <defs></defs>
    <g id="Icons/Sprites/tamtam" stroke="none" stroke-width="1" fill="none" fill-rule="evenodd">
        <g id="tamtam-unactive-small" transform="translate(2.000000, 34.000000)">
            <circle id="Oval" fill="#C1C9DA" cx="14" cy="14" r="14"></circle>
            <path d="M13.7407407,20.5755831 C13.3618582,20.5755831 12.9902766,20.5441057 12.6284344,20.4836063 C11.9873999,20.9276343 11.1536382,21.4886544 10.1271493,22.1666667 C10.1271493,21.3341796 10.1271493,20.4515678 10.1271493,19.5188312 C8.24722447,18.3143652 7,16.1977475 7,13.7877915 C7,10.0389978 10.0179324,7 13.7407407,7 C17.4635491,7 20.4814815,10.0389978 20.4814815,13.7877915 C20.4814815,17.5365853 17.4635491,20.5755831 13.7407407,20.5755831 Z M13.7407407,17.5809649 C15.4926505,17.5809649 16.912854,16.1508495 16.912854,14.3867101 C16.912854,14.4071723 10.5686275,14.3864375 10.5686275,14.3867101 C10.5686275,16.1508495 11.9888309,17.5809649 13.7407407,17.5809649 Z" id="Combined-Shape" fill="#FFFFFF"></path>
        </g>
        <g id="tamtam" transform="translate(2.000000, 2.000000)">
            <circle id="Oval" fill="#506CFB" cx="14" cy="14" r="14"></circle>
            <path d="M13.7407407,20.5755831 C13.3618582,20.5755831 12.9902766,20.5441057 12.6284344,20.4836063 C11.9873999,20.9276343 11.1536382,21.4886544 10.1271493,22.1666667 C10.1271493,21.3341796 10.1271493,20.4515678 10.1271493,19.5188312 C8.24722447,18.3143652 7,16.1977475 7,13.7877915 C7,10.0389978 10.0179324,7 13.7407407,7 C17.4635491,7 20.4814815,10.0389978 20.4814815,13.7877915 C20.4814815,17.5365853 17.4635491,20.5755831 13.7407407,20.5755831 Z M13.7407407,17.5809649 C15.4926505,17.5809649 16.912854,16.1508495 16.912854,14.3867101 C16.912854,14.4071723 10.5686275,14.3864375 10.5686275,14.3867101 C10.5686275,16.1508495 11.9888309,17.5809649 13.7407407,17.5809649 Z" id="Combined-Shape" fill="#FFFFFF"></path>
        </g>
    </g>
</svg>