<?xml version="1.0" encoding="UTF-8"?>
<svg width="32px" height="64px" viewBox="0 0 32 64" version="1.1" xmlns="http://www.w3.org/2000/svg" xmlns:xlink="http://www.w3.org/1999/xlink">
    <!-- Generator: Sketch 52.6 (67491) - http://www.bohemiancoding.com/sketch -->
    <title>Icons/Sprites/transport</title>
    <desc>Created with Sketch.</desc>
    <g id="Icons/Sprites/transport" stroke="none" stroke-width="1" fill="none" fill-rule="evenodd">
        <g id="transport-unactive" transform="translate(2.000000, 34.000000)">
            <path d="M28,14.0001338 C28,21.7321823 21.7319146,28 13.9998662,28 C6.26808539,28 0,21.7321823 0,14.0001338 C0,6.26808539 6.26808539,0 13.9998662,0 C21.7319146,0 28,6.26808539 28,14.0001338" id="bg-unactive" fill="#C1C9DA"></path>
            <g id="logo" transform="translate(6.000000, 6.000000)" fill="#FFFFFF">
                <path d="M0.503144654,2.66337855 L1.00628931,2.66337855 L1.00628931,5.91861899 C0.45081761,5.91861899 0,5.46683107 0,4.90850801 L0,3.16843403 C0,2.89025894 0.225408805,2.66337855 0.503144654,2.66337855 Z" id="Rectangle"></path>
                <path d="M15.4968553,2.66337855 L14.9937107,2.66337855 L14.9937107,5.91861899 C15.5491824,5.91861899 16,5.46683107 16,4.90850801 L16,3.16843403 C16,2.89025894 15.7745912,2.66337855 15.4968553,2.66337855 Z" id="Rectangle-Copy-3"></path>
                <path d="M4.76981132,14.1849568 L4.76981132,16 L1.52955975,16 L1.52955975,14.0863132 L1.52955975,1.27053021 C1.52955975,0.351171393 5.69358491,3.55271368e-15 8,3.55271368e-15 C10.2762264,3.55271368e-15 14.4704403,0.351171393 14.4704403,1.27053021 L14.4704403,14.0863132 L14.4704403,16 L11.2301887,16 L11.2301887,14.1849568 L4.76981132,14.1849568 Z M2.25408805,2.26288533 C2.12327044,2.30036991 2.0327044,2.42071517 2.0327044,2.55487053 L2.0327044,9.69667078 C2.0327044,9.86436498 2.16955975,10.0004932 2.33660377,10.0004932 L13.683522,10.0004932 C13.850566,10.0004932 13.9874214,9.86436498 13.9874214,9.69667078 L13.9874214,2.55487053 C13.9874214,2.41874229 13.8968553,2.30036991 13.7660377,2.26288533 C12.5242767,1.91171393 10.6062893,1.73612824 8.01006289,1.73612824 C5.41383648,1.73612824 3.49584906,1.91171393 2.25408805,2.26288533 Z M12.3773585,13.4151841 C13.0970707,13.4151841 13.679425,12.8273625 13.679425,12.1035758 C13.679425,11.3797892 13.0970707,10.7919676 12.3773585,10.7919676 C11.6576463,10.7919676 11.075292,11.3797892 11.075292,12.1035758 C11.075292,12.8273625 11.6576463,13.4151841 12.3773585,13.4151841 Z M12.3773585,12.8437555 C11.974439,12.8437555 11.6467206,12.5129603 11.6467206,12.1035758 C11.6467206,11.6941913 11.974439,11.3633962 12.3773585,11.3633962 C12.7802779,11.3633962 13.1079964,11.6941913 13.1079964,12.1035758 C13.1079964,12.5129603 12.7802779,12.8437555 12.3773585,12.8437555 Z M3.6427673,13.4151841 C2.9230551,13.4151841 2.34070081,12.8273625 2.34070081,12.1035758 C2.34070081,11.3797892 2.9230551,10.7919676 3.6427673,10.7919676 C4.36247949,10.7919676 4.94483378,11.3797892 4.94483378,12.1035758 C4.94483378,12.8273625 4.36247949,13.4151841 3.6427673,13.4151841 Z M3.6427673,12.8437555 C4.04568674,12.8437555 4.37340521,12.5129603 4.37340521,12.1035758 C4.37340521,11.6941913 4.04568674,11.3633962 3.6427673,11.3633962 C3.23984785,11.3633962 2.91212938,11.6941913 2.91212938,12.1035758 C2.91212938,12.5129603 3.23984785,12.8437555 3.6427673,12.8437555 Z" id="Combined-Shape"></path>
            </g>
        </g>
        <g id="transport-active" transform="translate(2.000000, 2.000000)">
            <path d="M28,14.0001338 C28,21.7321823 21.7319146,28 13.9998662,28 C6.26808539,28 0,21.7321823 0,14.0001338 C0,6.26808539 6.26808539,0 13.9998662,0 C21.7319146,0 28,6.26808539 28,14.0001338" id="bg-active" fill="#E2E2E2"></path>
            <g id="logo" transform="translate(6.000000, 6.000000)">
                <ellipse id="path-5" fill="#FFFFFF" cx="3.6427673" cy="12.1035758" rx="1.06666667" ry="1.07521578"></ellipse>
                <rect id="Rectangle-Copy" fill="#000000" x="1.52955975" y="14.0863132" width="3.24025157" height="1.91368681"></rect>
                <rect id="Rectangle-Copy-2" fill="#000000" x="11.2301887" y="14.0863132" width="3.24025157" height="1.91368681"></rect>
                <path d="M0.503144654,2.66337855 L1.00628931,2.66337855 L1.00628931,5.91861899 C0.45081761,5.91861899 0,5.46683107 0,4.90850801 L0,3.16843403 C0,2.89025894 0.225408805,2.66337855 0.503144654,2.66337855 Z" id="Rectangle" fill="#0061DC"></path>
                <path d="M15.4968553,2.66337855 L14.9937107,2.66337855 L14.9937107,5.91861899 C15.5491824,5.91861899 16,5.46683107 16,4.90850801 L16,3.16843403 C16,2.89025894 15.7745912,2.66337855 15.4968553,2.66337855 Z" id="Rectangle-Copy-3" fill="#0061DC"></path>
                <path d="M1.52955975,1.27053021 C1.52955975,0.351171393 5.69358491,0 8,0 C10.2762264,0 14.4704403,0.351171393 14.4704403,1.27053021 L14.4704403,14.1849568 L1.52955975,14.1849568 L1.52955975,1.27053021 Z" id="path-1_1_" fill="#007AFF"></path>
                <path d="M2.25408805,2.26288533 C3.49584906,1.91171393 5.41383648,1.73612824 8.01006289,1.73612824 C10.6062893,1.73612824 12.5242767,1.91171393 13.7660377,2.26288533 C13.8968553,2.30036991 13.9874214,2.41874229 13.9874214,2.55487053 L13.9874214,9.69667078 C13.9874214,9.86436498 13.850566,10.0004932 13.683522,10.0004932 L2.33660377,10.0004932 C2.16955975,10.0004932 2.0327044,9.86436498 2.0327044,9.69667078 L2.0327044,2.55487053 C2.0327044,2.42071517 2.12327044,2.30036991 2.25408805,2.26288533 Z" id="Rectangle_2_" fill="#FFFFFF" opacity="0.9807"></path>
                <path d="M6.21283019,13.1590629 L9.8072956,13.1590629 C10.4010063,13.1590629 10.8961006,13.6049322 10.9484277,14.1849568 L5.07169811,14.1849568 C5.12201258,13.6049322 5.6191195,13.1590629 6.21283019,13.1590629 Z" id="Rectangle-17" fill="#0061DC"></path>
                <g id="Oval-2" transform="translate(11.310692, 11.028360)">
                    <ellipse id="path-3_1_" fill="#F3F3F3" cx="1.06666667" cy="1.07521578" rx="1.06666667" ry="1.07521578"></ellipse>
                    <path d="M1.06666667,2.38682403 C0.346954469,2.38682403 -0.23539982,1.79900246 -0.23539982,1.07521578 C-0.23539982,0.35142911 0.346954469,-0.236392461 1.06666667,-0.236392461 C1.78637886,-0.236392461 2.36873315,0.35142911 2.36873315,1.07521578 C2.36873315,1.79900246 1.78637886,2.38682403 1.06666667,2.38682403 Z M1.06666667,1.81539546 C1.46958611,1.81539546 1.79730458,1.48460029 1.79730458,1.07521578 C1.79730458,0.66583128 1.46958611,0.335036111 1.06666667,0.335036111 C0.663747222,0.335036111 0.336028751,0.66583128 0.336028751,1.07521578 C0.336028751,1.48460029 0.663747222,1.81539546 1.06666667,1.81539546 Z" id="Oval" fill="#FFFFFF" fill-rule="nonzero"></path>
                </g>
                <g id="Oval-1" transform="translate(2.576101, 11.028360)">
                    <ellipse id="path-5_2_" fill="#F3F3F3" cx="1.06666667" cy="1.07521578" rx="1.06666667" ry="1.07521578"></ellipse>
                    <path d="M1.06666667,2.38682403 C0.346954469,2.38682403 -0.23539982,1.79900246 -0.23539982,1.07521578 C-0.23539982,0.35142911 0.346954469,-0.236392461 1.06666667,-0.236392461 C1.78637886,-0.236392461 2.36873315,0.35142911 2.36873315,1.07521578 C2.36873315,1.79900246 1.78637886,2.38682403 1.06666667,2.38682403 Z M1.06666667,1.81539546 C1.46958611,1.81539546 1.79730458,1.48460029 1.79730458,1.07521578 C1.79730458,0.66583128 1.46958611,0.335036111 1.06666667,0.335036111 C0.663747222,0.335036111 0.336028751,0.66583128 0.336028751,1.07521578 C0.336028751,1.48460029 0.663747222,1.81539546 1.06666667,1.81539546 Z" id="Oval" fill="#FFFFFF" fill-rule="nonzero"></path>
                </g>
            </g>
        </g>
    </g>
</svg>