<?xml version="1.0" encoding="UTF-8"?>
<svg width="32px" height="64px" viewBox="0 0 32 64" version="1.1" xmlns="http://www.w3.org/2000/svg" xmlns:xlink="http://www.w3.org/1999/xlink">
    <!-- Generator: Sketch 49.1 (51147) - http://www.bohemiancoding.com/sketch -->
    <title>Icons/Sprites/tv</title>
    <desc>Created with Sketch.</desc>
    <defs>
        <rect id="path-1" x="0" y="0" width="28" height="28" rx="14"></rect>
        <rect id="path-3" x="0" y="0" width="28" height="28" rx="14"></rect>
    </defs>
    <g id="Icons/Sprites/tv" stroke="none" stroke-width="1" fill="none" fill-rule="evenodd">
        <g id="teletv-unactive" transform="translate(2.000000, 34.000000)">
            <mask id="mask-2" fill="white">
                <use xlink:href="#path-1"></use>
            </mask>
            <use id="Rectangle" fill="#C1C9DA" xlink:href="#path-1"></use>
            <g id="tele2-tv-base" mask="url(#mask-2)" fill="#FFFFFF">
                <g transform="translate(-0.581220, 3.500000)">
                    <path d="M0.593328553,3.36572959 L1.25342479,3.29793365 L1.39920576,4.6312538 L0.593328553,4.71486879 L0.593328553,3.36572959 Z M3.11825497,3.10584515 L3.90313972,10.2910848 L2.35669518,10.4492754 L1.57181043,3.26516561 L3.11825497,3.10584515 Z M3.43547437,3.07420705 L5.194176,2.89341787 L5.33995697,4.22786796 L3.58125534,4.40526733 L3.43547437,3.07420705 Z" id="Shape" fill-rule="nonzero"></path>
                    <path d="M3.62943415,7.78544286 L3.90313972,10.2910848 L2.35669518,10.4492754 L1.9824105,7.02341922 L3.62943415,7.78544286 Z" id="Combined-Shape" fill-rule="evenodd"></path>
                    <path d="M8.25642003,9.71283618 L6.71618186,9.86805556 L5.93328553,2.82220459 L7.47584684,2.6658765 L8.25642003,9.71283618 Z M7.79179313,2.63039779 L10.9466098,2.31219807 L11.0918057,3.62047567 L7.94047374,3.94754507 L7.79179313,2.63039779 Z M8.10541629,5.45095559 L11.0906441,5.14827781 L11.2311938,6.43105508 L8.24480436,6.73262416 L8.10541629,5.45095559 Z M8.42949355,8.37129729 L11.7213751,8.03868434 L11.8665711,9.34696194 L8.57468946,9.67957488 L8.42949355,8.37129729 Z" id="Shape" fill-rule="nonzero"></path>
                    <path d="M7.877747,9.75099741 L6.71618186,9.86805556 L6.63951889,9.17811002 L7.877747,9.75099741 Z" id="Combined-Shape" fill-rule="evenodd"></path>
                    <path d="M14.7201989,9.12406916 L13.2216205,9.28683575 L12.4598996,1.89490747 L13.958478,1.73097826 L14.7201989,9.12406916 Z M14.8863309,7.7173008 L17.6585879,7.41502 L17.7998566,8.78807242 L15.0275996,9.09035323 L14.8863309,7.7173008 Z" id="Shape" fill-rule="nonzero"></path>
                    <path d="M20.1225364,8.54928786 L18.5814383,8.70561594 L17.7998566,1.65643885 L19.3397933,1.50011076 L20.1225364,8.54928786 Z M19.6580004,1.46795818 L22.8121996,1.14975845 L22.9573671,2.45803605 L19.8031679,2.77734448 L19.6580004,1.46795818 Z M19.9715622,4.28851598 L22.9562057,3.9858382 L23.0978892,5.26528934 L20.1132457,5.56685841 L19.9715622,4.28851598 Z M20.295576,7.20885767 L23.5868133,6.87624472 L23.7331421,8.18341361 L20.4419048,8.51602656 L20.295576,7.20885767 Z" id="Shape" fill-rule="nonzero"></path>
                    <path d="M25.951874,1.80407834 C25.4004677,1.95689447 25.0344573,2.50309074 25.0851057,3.09755427 C25.1106616,3.34042916 25.1617732,3.66240552 25.1724215,3.76601728 L23.8019906,3.75153392 L23.74449,3.18556857 C23.6380074,2.1728471 24.2769029,0.823665917 25.8304838,0.600844912 L25.951874,1.80407834 Z M24.1129197,6.87102798 L25.9231237,5.08845995 C27.1412844,3.88856884 27.3201752,3.52091418 27.247767,2.81234338 C27.2030443,2.36670137 26.8133181,1.80964886 26.2436363,1.77845392 L26.1211813,0.574106391 C27.2924897,0.50726009 28.1166649,1.04760103 28.4797705,1.91103242 L28.4797705,3.90528041 C28.226342,4.48684323 27.7727262,4.98039176 27.3084621,5.44051713 L24.6314899,8.08094604 L24.2353747,8.12439614 L24.1129197,6.87102798 Z M28.4787057,7.6509015 L25.1149209,8.02412668 L26.5747971,6.59250173 L28.4787057,6.38527819 L28.4787057,7.6509015 Z" id="Shape" fill-rule="nonzero"></path>
                    <path d="M4.91491798,11.3246479 L5.90415849,21.2729862 L3.95588328,21.4924517 L2.96664276,11.5452625 L4.91491798,11.3246479 Z M5.31514505,11.2798356 L7.52987872,11.0304952 L7.71327119,12.8769932 L5.49853752,13.1274826 L5.31514505,11.2798356 Z M0.296664276,11.8610554 L2.51139795,11.611715 L2.69479041,13.458213 L0.480056738,13.7087024 L0.296664276,11.8610554 Z" id="Shape" fill-rule="nonzero"></path>
                    <path d="M12.4696911,20.9112319 L8.30659974,11.3262571 L10.429615,11.0972801 L14.6065296,20.6811101 L12.4696911,20.9112319 Z M13.3728077,16.6751584 L14.5616041,10.6656586 L16.6131995,10.4492754 L14.7643446,19.8659521 L13.3728077,16.6751584 Z" id="Shape" fill-rule="nonzero"></path>
                    <path d="M14.1669273,12.6607942 L14.5616041,10.6656586 L16.6131995,10.4492754 L16.0114393,13.5141892 L14.1669273,12.6607942 Z" id="Combined-Shape" fill-rule="evenodd"></path>
                </g>
            </g>
        </g>
        <g id="teletv" transform="translate(2.000000, 2.000000)">
            <mask id="mask-4" fill="white">
                <use xlink:href="#path-3"></use>
            </mask>
            <use id="Rectangle" fill="#000000" xlink:href="#path-3"></use>
            <g id="tele2-tv-base" mask="url(#mask-4)">
                <g transform="translate(-0.581220, 3.500000)">
                    <path d="M0.593328553,3.36572959 L1.25342479,3.29793365 L1.39920576,4.6312538 L0.593328553,4.71486879 L0.593328553,3.36572959 Z M3.11825497,3.10584515 L3.90313972,10.2910848 L2.35669518,10.4492754 L1.57181043,3.26516561 L3.11825497,3.10584515 Z M3.43547437,3.07420705 L5.194176,2.89341787 L5.33995697,4.22786796 L3.58125534,4.40526733 L3.43547437,3.07420705 Z" id="Shape" fill="#FFFFFF" fill-rule="nonzero"></path>
                    <path d="M3.62943415,7.78544286 L3.90313972,10.2910848 L2.35669518,10.4492754 L1.9824105,7.02341922 L3.62943415,7.78544286 Z" id="Combined-Shape" fill="#CC1277" fill-rule="evenodd"></path>
                    <path d="M8.25642003,9.71283618 L6.71618186,9.86805556 L5.93328553,2.82220459 L7.47584684,2.6658765 L8.25642003,9.71283618 Z M7.79179313,2.63039779 L10.9466098,2.31219807 L11.0918057,3.62047567 L7.94047374,3.94754507 L7.79179313,2.63039779 Z M8.10541629,5.45095559 L11.0906441,5.14827781 L11.2311938,6.43105508 L8.24480436,6.73262416 L8.10541629,5.45095559 Z M8.42949355,8.37129729 L11.7213751,8.03868434 L11.8665711,9.34696194 L8.57468946,9.67957488 L8.42949355,8.37129729 Z" id="Shape" fill="#FFFFFF" fill-rule="nonzero"></path>
                    <path d="M7.877747,9.75099741 L6.71618186,9.86805556 L6.63951889,9.17811002 L7.877747,9.75099741 Z" id="Combined-Shape" fill="#CC1277" fill-rule="evenodd"></path>
                    <path d="M14.7201989,9.12406916 L13.2216205,9.28683575 L12.4598996,1.89490747 L13.958478,1.73097826 L14.7201989,9.12406916 Z M14.8863309,7.7173008 L17.6585879,7.41502 L17.7998566,8.78807242 L15.0275996,9.09035323 L14.8863309,7.7173008 Z" id="Shape" fill="#FFFFFF" fill-rule="nonzero"></path>
                    <path d="M20.1225364,8.54928786 L18.5814383,8.70561594 L17.7998566,1.65643885 L19.3397933,1.50011076 L20.1225364,8.54928786 Z M19.6580004,1.46795818 L22.8121996,1.14975845 L22.9573671,2.45803605 L19.8031679,2.77734448 L19.6580004,1.46795818 Z M19.9715622,4.28851598 L22.9562057,3.9858382 L23.0978892,5.26528934 L20.1132457,5.56685841 L19.9715622,4.28851598 Z M20.295576,7.20885767 L23.5868133,6.87624472 L23.7331421,8.18341361 L20.4419048,8.51602656 L20.295576,7.20885767 Z" id="Shape" fill="#FFFFFF" fill-rule="nonzero"></path>
                    <path d="M25.951874,1.80407834 C25.4004677,1.95689447 25.0344573,2.50309074 25.0851057,3.09755427 C25.1106616,3.34042916 25.1617732,3.66240552 25.1724215,3.76601728 L23.8019906,3.75153392 L23.74449,3.18556857 C23.6380074,2.1728471 24.2769029,0.823665917 25.8304838,0.600844912 L25.951874,1.80407834 Z M24.1129197,6.87102798 L25.9231237,5.08845995 C27.1412844,3.88856884 27.3201752,3.52091418 27.247767,2.81234338 C27.2030443,2.36670137 26.8133181,1.80964886 26.2436363,1.77845392 L26.1211813,0.574106391 C27.2924897,0.50726009 28.1166649,1.04760103 28.4797705,1.91103242 L28.4797705,3.90528041 C28.226342,4.48684323 27.7727262,4.98039176 27.3084621,5.44051713 L24.6314899,8.08094604 L24.2353747,8.12439614 L24.1129197,6.87102798 Z M28.4787057,7.6509015 L25.1149209,8.02412668 L26.5747971,6.59250173 L28.4787057,6.38527819 L28.4787057,7.6509015 Z" id="Shape" fill="#FFFFFF" fill-rule="nonzero"></path>
                    <path d="M4.91491798,11.3246479 L5.90415849,21.2729862 L3.95588328,21.4924517 L2.96664276,11.5452625 L4.91491798,11.3246479 Z M5.31514505,11.2798356 L7.52987872,11.0304952 L7.71327119,12.8769932 L5.49853752,13.1274826 L5.31514505,11.2798356 Z M0.296664276,11.8610554 L2.51139795,11.611715 L2.69479041,13.458213 L0.480056738,13.7087024 L0.296664276,11.8610554 Z" id="Shape" fill="#CC1277" fill-rule="nonzero"></path>
                    <path d="M12.4696911,20.9112319 L8.30659974,11.3262571 L10.429615,11.0972801 L14.6065296,20.6811101 L12.4696911,20.9112319 Z M13.3728077,16.6751584 L14.5616041,10.6656586 L16.6131995,10.4492754 L14.7643446,19.8659521 L13.3728077,16.6751584 Z" id="Shape" fill="#CC1277" fill-rule="nonzero"></path>
                    <path d="M14.1669273,12.6607942 L14.5616041,10.6656586 L16.6131995,10.4492754 L16.0114393,13.5141892 L14.1669273,12.6607942 Z" id="Combined-Shape" fill="#FFFFFF" fill-rule="evenodd"></path>
                </g>
            </g>
        </g>
    </g>
</svg>