<?xml version="1.0" encoding="UTF-8"?>
<svg width="32px" height="64px" viewBox="0 0 32 64" version="1.1" xmlns="http://www.w3.org/2000/svg" xmlns:xlink="http://www.w3.org/1999/xlink">
    <!-- Generator: Sketch 49.1 (51147) - http://www.bohemiancoding.com/sketch -->
    <title>Icons/Sprites/twitch</title>
    <desc>Created with Sketch.</desc>
    <defs></defs>
    <g id="Icons/Sprites/twitch" stroke="none" stroke-width="1" fill="none" fill-rule="evenodd">
        <g id="twitch-unactive" transform="translate(2.000000, 34.000000)">
            <circle id="bg-unactive" fill="#C1C9DA" cx="14" cy="14" r="14"></circle>
            <path d="M8.44218747,7.5 L7.5,9.90298507 L7.5,19.7238806 L10.8499999,19.7238806 L10.8499999,21.5 L12.7343749,21.5 L14.5140623,19.7238806 L17.2359372,19.7238806 L20.8999996,16.0671642 L20.8999996,7.5 L8.44218747,7.5 Z M19.6437497,15.4402985 L17.5499997,17.5298507 L14.1999998,17.5298507 L12.4203124,19.3059701 L12.4203124,17.5298507 L9.59374994,17.5298507 L9.59374994,8.75373134 L19.6437497,8.75373134 L19.6437497,15.4402985 Z M17.5499997,11.1567164 L17.5499997,14.8134328 L16.2937497,14.8134328 L16.2937497,11.1567164 L17.5499997,11.1567164 Z M14.1999998,11.1567164 L14.1999998,14.8134328 L12.9437498,14.8134328 L12.9437498,11.1567164 L14.1999998,11.1567164 Z" id="Shape" fill="#FFFFFF"></path>
        </g>
        <g id="twitch-active" transform="translate(2.000000, 2.000000)">
            <circle id="bg-active" fill="#6441A4" cx="14" cy="14" r="14"></circle>
            <path d="M8.44218747,7.5 L7.5,9.90298507 L7.5,19.7238806 L10.8499999,19.7238806 L10.8499999,21.5 L12.7343749,21.5 L14.5140623,19.7238806 L17.2359372,19.7238806 L20.8999996,16.0671642 L20.8999996,7.5 L8.44218747,7.5 Z M19.6437497,15.4402985 L17.5499997,17.5298507 L14.1999998,17.5298507 L12.4203124,19.3059701 L12.4203124,17.5298507 L9.59374994,17.5298507 L9.59374994,8.75373134 L19.6437497,8.75373134 L19.6437497,15.4402985 Z M17.5499997,11.1567164 L17.5499997,14.8134328 L16.2937497,14.8134328 L16.2937497,11.1567164 L17.5499997,11.1567164 Z M14.1999998,11.1567164 L14.1999998,14.8134328 L12.9437498,14.8134328 L12.9437498,11.1567164 L14.1999998,11.1567164 Z" id="Shape" fill="#FFFFFF"></path>
        </g>
    </g>
</svg>