<?xml version="1.0" encoding="UTF-8"?>
<svg width="32px" height="64px" viewBox="0 0 32 64" version="1.1" xmlns="http://www.w3.org/2000/svg" xmlns:xlink="http://www.w3.org/1999/xlink">
    <!-- Generator: Sketch 55.1 (78136) - https://sketchapp.com -->
    <title>Icons/Sprites/twitter</title>
    <desc>Created with Sketch.</desc>
    <g id="Icons/Sprites/twitter" stroke="none" stroke-width="1" fill="none" fill-rule="evenodd">
        <g id="twitter-unactive" transform="translate(2.000000, 34.000000)">
            <path d="M14,0 C6.26798977,0 0,6.26798977 0,14 C0,21.7320102 6.26798977,28 14,28 C21.7320102,28 28,21.7320102 28,14 C28,6.26798977 21.7320102,0 14,0 Z" id="Path" fill="#C1C9DA" fill-rule="nonzero"></path>
            <path d="M20.4815917,11.5615154 C20.4863266,11.6781773 20.4887969,11.7950414 20.4887969,11.912512 C20.4887969,16.133772 17.2182182,20.5 11.7450889,20.5 C10.0720233,20.5 8.44301279,20.0311284 7.03427797,19.1437297 C7.00483926,19.1253307 6.99269322,19.0895436 7.00442753,19.0573958 C7.01616184,19.0254503 7.04930612,19.005636 7.08327386,19.0094775 C7.31960699,19.0371771 7.5612926,19.0509258 7.80112544,19.0509258 C9.10281042,19.0509258 10.3351189,18.6556503 11.3774138,17.9057387 C10.1280186,17.802219 9.05422625,16.971837 8.66802334,15.7872235 C8.6599946,15.7625567 8.66575882,15.7356658 8.68305149,15.7162558 C8.70055003,15.6968459 8.72731249,15.688354 8.75283976,15.6930043 C9.09910484,15.757502 9.45113415,15.7617479 9.79039982,15.7075618 C8.50189021,15.3143081 7.59628967,14.1288858 7.59628967,12.7792876 L7.5967014,12.7400634 C7.597319,12.7143856 7.61152369,12.6909319 7.63416885,12.6781941 C7.65660814,12.6652542 7.68460579,12.665052 7.70725095,12.6775876 C8.04322279,12.860769 8.41501514,12.9784418 8.79648316,13.0235295 C8.05598642,12.4438594 7.62119935,11.5651548 7.62119935,10.6251874 C7.62119935,10.0829219 7.76736356,9.54995704 8.04404625,9.08391603 C8.05639815,9.06309077 8.07821985,9.04974642 8.10251193,9.04792674 C8.12700988,9.0455005 8.15068436,9.05601422 8.16612425,9.07461542 C9.68170306,10.9003639 11.9110161,12.0245236 14.2949339,12.1690873 C14.2552019,11.9725615 14.2350272,11.7699702 14.2350272,11.5655591 C14.2350272,9.87507371 15.6353215,8.5 17.3563537,8.5 C18.2024592,8.5 19.0201554,8.84149382 19.6062533,9.43834982 C20.2668744,9.30611953 20.896204,9.06753888 21.477567,8.72907786 C21.5041236,8.71350946 21.5374737,8.7159357 21.5619717,8.73473909 C21.585852,8.75374467 21.5957335,8.78528584 21.5862637,8.81440077 C21.3892509,9.41954643 21.0051066,9.94745666 20.4890028,10.3285791 C20.9750503,10.2454803 21.4466872,10.1051625 21.8952673,9.90964769 C21.9253236,9.89610116 21.9609382,9.90459301 21.9825541,9.92946201 C22.003964,9.9545332 22.0058168,9.9903203 21.9872889,10.0174134 C21.5786467,10.6181109 21.0722186,11.1375293 20.4815917,11.5615154 Z" id="Path" fill="#FFFFFF"></path>
        </g>
        <g id="twitter-active" transform="translate(2.000000, 2.000000)">
            <path d="M14,0 C6.26798977,0 0,6.26798977 0,14 C0,21.7320102 6.26798977,28 14,28 C21.7320102,28 28,21.7320102 28,14 C28,6.26798977 21.7320102,0 14,0 Z" id="Path" fill="#00ACEE" fill-rule="nonzero"></path>
            <path d="M20.4815917,11.5615154 C20.4863266,11.6781773 20.4887969,11.7950414 20.4887969,11.912512 C20.4887969,16.133772 17.2182182,20.5 11.7450889,20.5 C10.0720233,20.5 8.44301279,20.0311284 7.03427797,19.1437297 C7.00483926,19.1253307 6.99269322,19.0895436 7.00442753,19.0573958 C7.01616184,19.0254503 7.04930612,19.005636 7.08327386,19.0094775 C7.31960699,19.0371771 7.5612926,19.0509258 7.80112544,19.0509258 C9.10281042,19.0509258 10.3351189,18.6556503 11.3774138,17.9057387 C10.1280186,17.802219 9.05422625,16.971837 8.66802334,15.7872235 C8.6599946,15.7625567 8.66575882,15.7356658 8.68305149,15.7162558 C8.70055003,15.6968459 8.72731249,15.688354 8.75283976,15.6930043 C9.09910484,15.757502 9.45113415,15.7617479 9.79039982,15.7075618 C8.50189021,15.3143081 7.59628967,14.1288858 7.59628967,12.7792876 L7.5967014,12.7400634 C7.597319,12.7143856 7.61152369,12.6909319 7.63416885,12.6781941 C7.65660814,12.6652542 7.68460579,12.665052 7.70725095,12.6775876 C8.04322279,12.860769 8.41501514,12.9784418 8.79648316,13.0235295 C8.05598642,12.4438594 7.62119935,11.5651548 7.62119935,10.6251874 C7.62119935,10.0829219 7.76736356,9.54995704 8.04404625,9.08391603 C8.05639815,9.06309077 8.07821985,9.04974642 8.10251193,9.04792674 C8.12700988,9.0455005 8.15068436,9.05601422 8.16612425,9.07461542 C9.68170306,10.9003639 11.9110161,12.0245236 14.2949339,12.1690873 C14.2552019,11.9725615 14.2350272,11.7699702 14.2350272,11.5655591 C14.2350272,9.87507371 15.6353215,8.5 17.3563537,8.5 C18.2024592,8.5 19.0201554,8.84149382 19.6062533,9.43834982 C20.2668744,9.30611953 20.896204,9.06753888 21.477567,8.72907786 C21.5041236,8.71350946 21.5374737,8.7159357 21.5619717,8.73473909 C21.585852,8.75374467 21.5957335,8.78528584 21.5862637,8.81440077 C21.3892509,9.41954643 21.0051066,9.94745666 20.4890028,10.3285791 C20.9750503,10.2454803 21.4466872,10.1051625 21.8952673,9.90964769 C21.9253236,9.89610116 21.9609382,9.90459301 21.9825541,9.92946201 C22.003964,9.9545332 22.0058168,9.9903203 21.9872889,10.0174134 C21.5786467,10.6181109 21.0722186,11.1375293 20.4815917,11.5615154 Z" id="Path" fill="#FFFFFF"></path>
        </g>
    </g>
</svg>