<?xml version="1.0" encoding="UTF-8"?>
<svg width="32px" height="64px" viewBox="0 0 32 64" version="1.1" xmlns="http://www.w3.org/2000/svg" xmlns:xlink="http://www.w3.org/1999/xlink">
    <!-- Generator: Sketch 49.1 (51147) - http://www.bohemiancoding.com/sketch -->
    <title>Icons/Sprites/viber</title>
    <desc>Created with Sketch.</desc>
    <defs></defs>
    <g id="Icons/Sprites/viber" stroke="none" stroke-width="1" fill="none" fill-rule="evenodd">
        <g id="viber-unactive-small" transform="translate(2.000000, 34.000000)">
            <circle id="Oval" fill="#C1C9DA" cx="14" cy="14" r="14"></circle>
            <g id="Group" transform="translate(7.662835, 7.662835)" fill="#FFFFFF" fill-rule="nonzero">
                <path d="M11.9771278,3.07124414 L11.9734861,3.05667716 C11.6789095,1.86582704 10.350887,0.587979718 9.13130761,0.322132443 L9.11754992,0.319299976 C7.14493886,-0.0570135174 5.14481241,-0.0570135174 3.172606,0.319299976 L3.15844366,0.322132443 C1.93926887,0.587979718 0.611246412,1.86582704 0.31626519,3.05667716 L0.313028084,3.07124414 C-0.0511462641,4.73430699 -0.0511462641,6.42083887 0.313028084,8.08390172 L0.31626519,8.0984687 C0.598662165,9.23849626 1.82779105,10.4576306 3.00184869,10.7929138 L3.00184869,12.1222311 C3.00184869,12.6033459 3.58816939,12.8396545 3.92159124,12.492475 L5.26842937,11.0924674 C5.56053766,11.1088148 5.85280781,11.1179191 6.14507796,11.1179191 C7.13806001,11.1179191 8.13144671,11.0240431 9.11754992,10.8358863 L9.13130761,10.8330539 C10.350887,10.5672066 11.6789095,9.28935928 11.9734861,8.09850916 L11.9771278,8.08394219 C12.3413022,6.42083887 12.3413022,4.73430699 11.9771278,3.07124414 Z M10.9113109,7.84273738 C10.7146568,8.61964265 9.70629845,9.58551395 8.90511488,9.76395938 C7.85625229,9.96340554 6.79909462,10.0486628 5.74298901,10.0194075 C5.72198829,10.018841 5.70179685,10.0269742 5.68714894,10.0420267 C5.53727097,10.1958702 4.70375681,11.051518 4.70375681,11.051518 L3.65776716,12.1250231 C3.58129054,12.2047368 3.44695067,12.1505153 3.44695067,12.0404537 L3.44695067,9.83833188 C3.44695067,9.80195491 3.4209729,9.77104055 3.38524335,9.76404031 C3.38504103,9.76399985 3.38483871,9.76395938 3.38463639,9.76391892 C2.58345283,9.58547349 1.57549916,8.61960219 1.37844037,7.84269691 C1.05068346,6.33946613 1.05068346,4.8155988 1.37844037,3.31236802 C1.57549916,2.53546274 2.58345283,1.56959144 3.38463639,1.39114601 C5.21643337,1.04275255 7.07372254,1.04275255 8.90511488,1.39114601 C9.70670308,1.56959144 10.7146568,2.53546274 10.9113109,3.31236802 C11.239432,4.81563927 11.239432,6.33950659 10.9113109,7.84273738 Z" id="Shape"></path>
                <path d="M7.887895,8.85922891 C7.76472314,8.82184034 7.64733761,8.79671231 7.53832809,8.75147377 C6.40874018,8.28282185 5.36914381,7.6782115 4.54566468,6.75138778 C4.07737693,6.22434657 3.71085568,5.62932615 3.40102424,4.99962824 C3.25410012,4.70100527 3.13028084,4.39068826 3.0040742,4.08239445 C2.88899511,3.80125185 3.05849803,3.51080257 3.23698393,3.2989745 C3.40446366,3.10017576 3.61997395,2.94803181 3.85336924,2.83590658 C4.03553735,2.74838334 4.21523716,2.79884172 4.34828218,2.95325165 C4.63589899,3.28707813 4.90008725,3.63798035 5.11401945,4.02493583 C5.24556732,4.262944 5.20947359,4.55387884 4.97106078,4.71585549 C4.9131166,4.75522679 4.86031132,4.80143647 4.80633259,4.8459062 C4.75898992,4.88487286 4.71443926,4.92424415 4.68198728,4.97700897 C4.62266732,5.07355563 4.61983486,5.18742081 4.6580327,5.29238395 C4.95204279,6.10036544 5.44760315,6.72864712 6.26084494,7.06704601 C6.39097657,7.1211866 6.5216747,7.18422923 6.67159314,7.16674886 C6.92267112,7.13741259 7.00396293,6.86201586 7.1798996,6.71812653 C7.35187082,6.57751476 7.57162981,6.57565343 7.75687316,6.6928771 C7.94215697,6.81014124 8.12177586,6.93602418 8.30030221,7.06324242 C8.475551,7.18811375 8.65003098,7.31027402 8.81168393,7.45262572 C8.96710545,7.58951481 9.02063908,7.76909323 8.93311584,7.95486261 C8.77287913,8.29508238 8.53972662,8.57812678 8.20339137,8.75879772 C8.1084228,8.80974166 7.99500272,8.8262509 7.887895,8.85922891 C7.76472314,8.82179988 7.99500272,8.8262509 7.887895,8.85922891 Z" id="Shape"></path>
                <path d="M6.14815321,2.44688745 C7.62568947,2.48828193 8.83923979,3.4688416 9.09930073,4.92958537 C9.14360861,5.17847831 9.1593895,5.43295525 9.17909538,5.68557086 C9.18739046,5.79182884 9.12722077,5.89278606 9.01254631,5.89416183 C8.89410872,5.89557806 8.84081787,5.79648218 8.83312975,5.69026466 C8.81791535,5.48001467 8.8073543,5.26883401 8.77838221,5.06032396 C8.62542898,3.95966769 7.7477688,3.04906996 6.65221097,2.85367019 C6.48736138,2.824253 6.31862727,2.81652441 6.15163309,2.79900358 C6.046063,2.78791649 5.90779814,2.78152321 5.88441005,2.65029905 C5.8647851,2.54027794 5.95764956,2.45267377 6.06241038,2.4470493 C6.09089691,2.44547121 6.11954529,2.44676606 6.14815321,2.44688745 C7.62568947,2.48828193 6.11954529,2.44676606 6.14815321,2.44688745 Z" id="Shape"></path>
                <path d="M8.39357131,5.35769255 C8.39114348,5.37614405 8.38984864,5.41952126 8.3790448,5.46038972 C8.33983536,5.60873007 8.11493747,5.62730296 8.06314379,5.47758684 C8.047808,5.43315757 8.04550156,5.38261826 8.04542063,5.33479003 C8.0448946,5.02184287 7.97687493,4.70921943 7.81906604,4.43693841 C7.6568466,4.15709065 7.40900573,3.92183402 7.11831367,3.77948232 C6.94253885,3.69341578 6.75243984,3.63992261 6.55979161,3.60803713 C6.47558641,3.59411757 6.390491,3.58566064 6.30588116,3.57388566 C6.20334585,3.5596424 6.14859831,3.49429334 6.15345397,3.39325519 C6.15798591,3.29856986 6.22717904,3.23046925 6.33036177,3.23629604 C6.66944855,3.25555682 6.99696268,3.32883679 7.29841812,3.48846655 C7.91144494,3.81310775 8.26161881,4.32554152 8.36383041,5.00978466 C8.36844328,5.04077994 8.37588862,5.07149198 8.37823552,5.10260865 C8.38402185,5.17944944 8.38766359,5.25637115 8.39357131,5.35769255 C8.39114348,5.37614405 8.38766359,5.25637115 8.39357131,5.35769255 Z" id="Shape"></path>
                <path d="M7.47455711,5.32192254 C7.35094015,5.32414805 7.28478181,5.25572373 7.27203571,5.14238458 C7.26317413,5.06335875 7.25617389,4.98328086 7.23731775,4.90639961 C7.20017197,4.754984 7.11968944,4.61465549 6.99230935,4.52187196 C6.93218011,4.47804964 6.86403905,4.44612369 6.79266088,4.42552761 C6.70198146,4.39934752 6.60782216,4.40655008 6.51734507,4.38437591 C6.41909892,4.36029994 6.36475602,4.28074807 6.38021319,4.1885715 C6.39425414,4.10469001 6.47586966,4.03921955 6.5675202,4.04585562 C7.14036645,4.08720964 7.54977935,4.38336431 7.6082091,5.05773428 C7.61233641,5.10531973 7.61719206,5.15561625 7.60663101,5.20113804 C7.58854368,5.27907136 7.53084228,5.31811894 7.47455711,5.32192254 C7.35094015,5.32414805 7.53084228,5.31811894 7.47455711,5.32192254 Z" id="Shape"></path>
            </g>
        </g>
        <g id="viber" transform="translate(2.000000, 2.000000)">
            <circle id="Oval" fill="#59267C" cx="14" cy="14" r="14"></circle>
            <g id="Group" transform="translate(7.777778, 7.777778)" fill="#FFFFFF" fill-rule="nonzero">
                <path d="M12.1567847,3.1173128 L12.1530884,3.10252732 C11.8540931,1.89381445 10.5061503,0.596799413 9.26827723,0.32696443 L9.25431316,0.324089476 C7.25211294,-0.0578687202 5.2219846,-0.0578687202 3.22019509,0.324089476 L3.20582032,0.32696443 C1.9683579,0.596799413 0.620415108,1.89381445 0.321009168,3.10252732 L0.317723506,3.1173128 C-0.051913458,4.8053216 -0.051913458,6.51715145 0.317723506,8.20516025 L0.321009168,8.21994573 C0.607642098,9.37707371 1.85520792,10.614495 3.04687642,10.9548075 L3.04687642,12.3040645 C3.04687642,12.792396 3.64199193,13.0322494 3.98041511,12.6798621 L5.34745581,11.2588544 C5.64394573,11.275447 5.94059993,11.2846879 6.23725413,11.2846879 C7.24513091,11.2846879 8.25341841,11.1894037 9.25431316,10.9984246 L9.26827723,10.9955497 C10.5061503,10.7257147 11.8540931,9.42869967 12.1530884,8.2199868 L12.1567847,8.20520132 C12.5264217,6.51715145 12.5264217,4.8053216 12.1567847,3.1173128 Z M11.0749806,7.96037844 C10.8753766,8.74893729 9.85189292,9.72929666 9.0386916,9.91041878 C7.97409608,10.1128566 6.90108104,10.1993927 5.82913385,10.1696986 C5.80781812,10.1691236 5.7873238,10.1773788 5.77245618,10.1926571 C5.62033003,10.3488082 4.77431316,11.2172908 4.77431316,11.2172908 L3.71263366,12.3068984 C3.6350099,12.3878078 3.49865493,12.332773 3.49865493,12.2210605 L3.49865493,9.98590686 C3.49865493,9.94898423 3.4722875,9.91760616 3.436022,9.91050092 C3.43581665,9.91045985 3.43561129,9.91041878 3.43540594,9.9103777 C2.62220462,9.72925559 1.59913165,8.74889622 1.39911698,7.96033737 C1.06644371,6.43455812 1.06644371,4.88783278 1.39911698,3.36205354 C1.59913165,2.57349468 2.62220462,1.59313531 3.43540594,1.4120132 C5.29467987,1.05839384 7.17982838,1.05839384 9.0386916,1.4120132 C9.85230363,1.59313531 10.8753766,2.57349468 11.0749806,3.36205354 C11.4080235,4.88787385 11.4080235,6.43459919 11.0749806,7.96037844 Z" id="Shape"></path>
                <path d="M8.00621342,8.99211735 C7.88119399,8.95416795 7.76204767,8.928663 7.65140301,8.88274587 C6.50487129,8.40706417 5.44968097,7.79338467 4.61384965,6.8526586 C4.13853759,6.31771177 3.76651852,5.71376604 3.4520396,5.07462266 C3.30291162,4.77152035 3.17723506,4.45654859 3.04913531,4.14363036 C2.93233003,3.85827063 3.1043755,3.56346461 3.28553869,3.34845911 C3.45553062,3.1466784 3.67427356,2.99225229 3.91116978,2.87844518 C4.09607041,2.78960909 4.27846571,2.84082435 4.41350642,2.99755042 C4.70543748,3.33638431 4.97358856,3.69255006 5.19072974,4.08530986 C5.32425083,4.32688816 5.28761569,4.62218702 5.0456267,4.78659333 C4.98681335,4.82655519 4.93321599,4.87345801 4.87842758,4.91859479 C4.83037477,4.95814595 4.78515585,4.99810781 4.75221709,5.0516641 C4.69200733,5.14965897 4.68913238,5.26523212 4.72790319,5.37176971 C5.02632343,6.19187092 5.5293172,6.82957682 6.35475761,7.17305171 C6.48684122,7.2280044 6.61949982,7.29199267 6.77166703,7.27425009 C7.02651118,7.24447378 7.10902237,6.96494609 7.28759809,6.81889842 C7.46214888,6.67617748 7.68520425,6.67428823 7.87322626,6.79327026 C8.06128933,6.91229336 8.24360249,7.04006454 8.42480675,7.16919105 C8.60268427,7.29593546 8.77978144,7.41992813 8.94385919,7.56441511 C9.10161203,7.70335754 9.15594866,7.88562963 9.06711258,8.07418555 C8.90447231,8.41950862 8.66782252,8.70679868 8.32644224,8.89017968 C8.23004914,8.94188779 8.11492776,8.95864466 8.00621342,8.99211735 C7.88119399,8.95412688 8.11492776,8.95864466 8.00621342,8.99211735 Z" id="Shape"></path>
                <path d="M6.2403755,2.48359076 C7.74007481,2.52560616 8.97182838,3.52087422 9.23579025,5.00352915 C9.28076274,5.25615548 9.29678034,5.51444958 9.31678181,5.77085442 C9.32520132,5.87870627 9.26412908,5.98117785 9.14773451,5.98257426 C9.02752035,5.98401173 8.97343014,5.88342941 8.9656267,5.77561863 C8.95018409,5.56221489 8.93946461,5.34786652 8.91005794,5.13622882 C8.75481041,4.01906271 7.86398533,3.09480601 6.75199413,2.89647525 C6.5846718,2.8666168 6.41340667,2.85877228 6.24390759,2.84098863 C6.13675394,2.82973524 5.99641511,2.82324606 5.9726762,2.69005354 C5.95275688,2.5783821 6.0470143,2.48946388 6.15334653,2.48375504 C6.18226036,2.48215328 6.21133847,2.48346755 6.2403755,2.48359076 C7.74007481,2.52560616 6.21133847,2.48346755 6.2403755,2.48359076 Z" id="Shape"></path>
                <path d="M8.51947488,5.43805794 C8.51701063,5.45678621 8.51569637,5.50081408 8.50473047,5.54229556 C8.46493289,5.69286102 8.23666153,5.7117125 8.18409094,5.55975064 C8.16852512,5.51465493 8.16618409,5.46335754 8.16610194,5.41481188 C8.16556802,5.09717052 8.09652805,4.77985772 7.93635204,4.50349248 C7.7716993,4.21944701 7.52014081,3.98066153 7.22508838,3.83617455 C7.04667693,3.74881702 6.85372644,3.69452145 6.65818849,3.66215768 C6.57272021,3.64802934 6.48634837,3.63944554 6.40046938,3.62749395 C6.29639604,3.61303704 6.24082728,3.54670774 6.24575578,3.44415402 C6.2503557,3.3480484 6.32058673,3.27892629 6.4253172,3.28484048 C6.76949028,3.30439017 7.10191713,3.37876934 7.40789439,3.54079355 C8.03011661,3.87030436 8.38554309,4.39042464 8.48928786,5.08493143 C8.49396993,5.11639164 8.50152695,5.14756436 8.50390906,5.17914778 C8.50978218,5.25714118 8.51347855,5.33521672 8.51947488,5.43805794 C8.51701063,5.45678621 8.51347855,5.33521672 8.51947488,5.43805794 Z" id="Shape"></path>
                <path d="M7.58667547,5.40175138 C7.46120425,5.40401027 7.39405354,5.33455959 7.38111624,5.21952035 C7.37212175,5.13930913 7.3650165,5.05803007 7.34587752,4.9799956 C7.30817455,4.82630876 7.22648478,4.68387532 7.09719399,4.58970004 C7.03616282,4.54522039 6.96699963,4.51281555 6.89455079,4.49191052 C6.80251118,4.46533773 6.70693949,4.47264833 6.61510524,4.45014155 C6.51538541,4.42570444 6.46022736,4.3449593 6.47591639,4.25140007 C6.49016795,4.16626036 6.5730077,4.09980785 6.666033,4.10654345 C7.24747195,4.14851779 7.66302604,4.44911478 7.72233223,5.13360029 C7.72652145,5.18189952 7.73144994,5.2329505 7.72073047,5.27915512 C7.70237184,5.35825743 7.64380491,5.39789072 7.58667547,5.40175138 C7.46120425,5.40401027 7.64380491,5.39789072 7.58667547,5.40175138 Z" id="Shape"></path>
            </g>
        </g>
    </g>
</svg>