<?xml version="1.0" encoding="UTF-8"?>
<svg width="32px" height="64px" viewBox="0 0 32 64" version="1.1" xmlns="http://www.w3.org/2000/svg" xmlns:xlink="http://www.w3.org/1999/xlink">
    <!-- Generator: Sketch 49.1 (51147) - http://www.bohemiancoding.com/sketch -->
    <title>Icons/Sprites/vk</title>
    <desc>Created with Sketch.</desc>
    <defs></defs>
    <g id="Icons/Sprites/vk" stroke="none" stroke-width="1" fill="none" fill-rule="evenodd">
        <g id="vk-unactive-small" transform="translate(2.000000, 34.000000)">
            <circle id="Oval" fill="#C1C9DA" cx="14" cy="14" r="14"></circle>
            <path d="M17.7036209,15.1391935 C18.1098779,15.5359986 18.5396758,15.9094413 18.9043798,16.3472644 C19.0659553,16.5409409 19.2182571,16.7412161 19.3341777,16.9664587 C19.4996766,17.2876479 19.3502282,17.6398681 19.0627452,17.6589504 L17.2770331,17.6585937 C16.8158475,17.6967584 16.4488251,17.5107504 16.1394063,17.1954464 C15.8924063,16.9441663 15.6632402,16.6757655 15.4253355,16.4159251 C15.3281405,16.3092781 15.2257737,16.208873 15.1037896,16.1298687 C14.8603564,15.9715034 14.6488459,16.0200117 14.5093845,16.2743236 C14.367248,16.533094 14.3347903,16.8198637 14.3212365,17.1078818 C14.3017975,17.528941 14.1748199,17.6389764 13.7523339,17.6587721 C12.84958,17.7010385 11.9930161,17.5640739 11.1969091,17.1089518 C10.4946087,16.7075099 9.95103034,16.1409258 9.47736098,15.4994391 C8.55498979,14.2489234 7.84858756,12.8764237 7.21387776,11.4645109 C7.07102793,11.1465318 7.1755348,10.9763961 7.52632833,10.9697975 C8.10914138,10.9585621 8.69195442,10.9599889 9.27476746,10.9692625 C9.51195882,10.9730076 9.66889746,11.1087239 9.76002888,11.3325398 C10.0749762,12.1074243 10.4610809,12.8446793 10.9449156,13.5284324 C11.073855,13.7105169 11.2054694,13.8920664 11.3929041,14.020649 C11.5997778,14.1626072 11.7574298,14.1157039 11.8549814,13.8847544 C11.9174002,13.7379811 11.9443294,13.5810425 11.9578832,13.4237472 C12.0042514,12.884984 12.00978,12.3463991 11.9295273,11.8097759 C11.8795922,11.4739629 11.6907308,11.2571022 11.3559879,11.1936134 C11.1854954,11.161334 11.2104629,11.0982019 11.2933907,11.0008286 C11.4373106,10.8324762 11.5721352,10.728326 11.8416059,10.728326 L13.8591592,10.7279693 C14.1771383,10.7903881 14.248474,10.9330596 14.2916321,11.2533571 L14.2934155,13.4954396 C14.2896704,13.6193855 14.355656,13.9867646 14.5782235,14.067909 C14.7565629,14.126761 14.8742668,13.9837328 14.9809138,13.870844 C15.4647485,13.3574049 15.8094785,12.7514078 16.1181839,12.1241882 C16.2544352,11.8475839 16.3719608,11.5613492 16.486098,11.2745795 C16.5709876,11.062534 16.7029587,10.9582055 16.9422901,10.9617723 L18.8851192,10.9640907 C18.9423661,10.9640907 19.0005047,10.9646257 19.0572166,10.9744344 C19.3846477,11.0304329 19.4743524,11.171321 19.3730557,11.4907268 C19.2136203,11.9925738 18.9038448,12.4106013 18.6010246,12.8296988 C18.2764469,13.2784006 17.9302902,13.7114086 17.6089227,14.1620722 C17.3135927,14.5740361 17.3369551,14.7814448 17.7036209,15.1391935 Z" id="vk-icon" fill="#FEFEFE" fill-rule="nonzero"></path>
        </g>
        <g id="vk" transform="translate(2.000000, 2.000000)">
            <circle id="Oval" fill="#45668E" cx="14" cy="14" r="14"></circle>
            <path d="M17.7036209,15.1391935 C18.1098779,15.5359986 18.5396758,15.9094413 18.9043798,16.3472644 C19.0659553,16.5409409 19.2182571,16.7412161 19.3341777,16.9664587 C19.4996766,17.2876479 19.3502282,17.6398681 19.0627452,17.6589504 L17.2770331,17.6585937 C16.8158475,17.6967584 16.4488251,17.5107504 16.1394063,17.1954464 C15.8924063,16.9441663 15.6632402,16.6757655 15.4253355,16.4159251 C15.3281405,16.3092781 15.2257737,16.208873 15.1037896,16.1298687 C14.8603564,15.9715034 14.6488459,16.0200117 14.5093845,16.2743236 C14.367248,16.533094 14.3347903,16.8198637 14.3212365,17.1078818 C14.3017975,17.528941 14.1748199,17.6389764 13.7523339,17.6587721 C12.84958,17.7010385 11.9930161,17.5640739 11.1969091,17.1089518 C10.4946087,16.7075099 9.95103034,16.1409258 9.47736098,15.4994391 C8.55498979,14.2489234 7.84858756,12.8764237 7.21387776,11.4645109 C7.07102793,11.1465318 7.1755348,10.9763961 7.52632833,10.9697975 C8.10914138,10.9585621 8.69195442,10.9599889 9.27476746,10.9692625 C9.51195882,10.9730076 9.66889746,11.1087239 9.76002888,11.3325398 C10.0749762,12.1074243 10.4610809,12.8446793 10.9449156,13.5284324 C11.073855,13.7105169 11.2054694,13.8920664 11.3929041,14.020649 C11.5997778,14.1626072 11.7574298,14.1157039 11.8549814,13.8847544 C11.9174002,13.7379811 11.9443294,13.5810425 11.9578832,13.4237472 C12.0042514,12.884984 12.00978,12.3463991 11.9295273,11.8097759 C11.8795922,11.4739629 11.6907308,11.2571022 11.3559879,11.1936134 C11.1854954,11.161334 11.2104629,11.0982019 11.2933907,11.0008286 C11.4373106,10.8324762 11.5721352,10.728326 11.8416059,10.728326 L13.8591592,10.7279693 C14.1771383,10.7903881 14.248474,10.9330596 14.2916321,11.2533571 L14.2934155,13.4954396 C14.2896704,13.6193855 14.355656,13.9867646 14.5782235,14.067909 C14.7565629,14.126761 14.8742668,13.9837328 14.9809138,13.870844 C15.4647485,13.3574049 15.8094785,12.7514078 16.1181839,12.1241882 C16.2544352,11.8475839 16.3719608,11.5613492 16.486098,11.2745795 C16.5709876,11.062534 16.7029587,10.9582055 16.9422901,10.9617723 L18.8851192,10.9640907 C18.9423661,10.9640907 19.0005047,10.9646257 19.0572166,10.9744344 C19.3846477,11.0304329 19.4743524,11.171321 19.3730557,11.4907268 C19.2136203,11.9925738 18.9038448,12.4106013 18.6010246,12.8296988 C18.2764469,13.2784006 17.9302902,13.7114086 17.6089227,14.1620722 C17.3135927,14.5740361 17.3369551,14.7814448 17.7036209,15.1391935 Z" id="vk-icon" fill="#FEFEFE" fill-rule="nonzero"></path>
        </g>
    </g>
</svg>