<?xml version="1.0" encoding="UTF-8"?>
<svg width="32px" height="64px" viewBox="0 0 32 64" version="1.1" xmlns="http://www.w3.org/2000/svg" xmlns:xlink="http://www.w3.org/1999/xlink">
    <!-- Generator: Sketch 49.1 (51147) - http://www.bohemiancoding.com/sketch -->
    <title>Icons/Sprites/whatsapp</title>
    <desc>Created with Sketch.</desc>
    <defs></defs>
    <g id="Icons/Sprites/whatsapp" stroke="none" stroke-width="1" fill="none" fill-rule="evenodd">
        <g id="whatsapp-unactive" transform="translate(2.000000, 34.000000)">
            <circle id="Oval" fill="#C1C9DA" cx="14" cy="14" r="14"></circle>
            <g id="whatsapp-logo" transform="translate(6.896552, 6.896552)" fill="#FFFFFF" fill-rule="nonzero">
                <path d="M13.7931034,6.7189272 C13.7931034,10.4297318 10.7618391,13.4378544 7.02191571,13.4378544 C5.83463602,13.4378544 4.71923372,13.1344061 3.74881226,12.6018391 L0,13.7931034 L1.22222222,10.1881992 C0.605670498,9.17578544 0.250574713,7.98835249 0.250574713,6.7189272 C0.250574713,3.00812261 3.28214559,0 7.02191571,0 C10.7621456,0 13.7931034,3.00812261 13.7931034,6.7189272 Z M7.02191571,1.07003831 C3.88260536,1.07003831 1.32904215,3.60413793 1.32904215,6.7189272 C1.32904215,7.95494253 1.73195402,9.09961686 2.41348659,10.0308046 L1.70222222,12.1287356 L3.88996169,11.43341 C4.78881226,12.0236015 5.86559387,12.3678161 7.02206897,12.3678161 C10.1609195,12.3678161 12.7149425,9.83402299 12.7149425,6.71923372 C12.7149425,3.60444444 10.1610728,1.07003831 7.02191571,1.07003831 Z M10.4412261,8.26636015 C10.399387,8.19785441 10.2888889,8.1564751 10.1230651,8.07417625 C9.95693487,7.99187739 9.14068966,7.5932567 8.98896552,7.53854406 C8.83678161,7.48367816 8.72582375,7.45609195 8.61532567,7.62084291 C8.50482759,7.78574713 8.18666667,8.1564751 8.08965517,8.26636015 C7.99279693,8.37655172 7.89609195,8.39034483 7.72996169,8.30789272 C7.56413793,8.22559387 7.02942529,8.05149425 6.3954023,7.49057471 C5.90206897,7.05409962 5.56888889,6.51524904 5.47203065,6.35019157 C5.37532567,6.18544061 5.46191571,6.09639847 5.54482759,6.01440613 C5.61961686,5.9405364 5.71095785,5.82206897 5.79386973,5.72597701 C5.87708812,5.6297318 5.90467433,5.56122605 5.95969349,5.45118774 C6.01532567,5.34130268 5.98758621,5.24521073 5.94590038,5.16260536 C5.90452107,5.08030651 5.57226054,4.26988506 5.43402299,3.94007663 C5.29578544,3.61057471 5.15770115,3.66544061 5.06068966,3.66544061 C4.96398467,3.66544061 4.85318008,3.65164751 4.74252874,3.65164751 C4.63187739,3.65164751 4.45195402,3.69287356 4.29977011,3.85762452 C4.14773946,4.02252874 3.71908046,4.42099617 3.71908046,5.23126437 C3.71908046,6.04168582 4.31356322,6.82467433 4.39678161,6.93440613 C4.47969349,7.04413793 5.54467433,8.76122605 7.23203065,9.42068966 C8.91954023,10.0798467 8.91954023,9.85992337 9.22390805,9.83233716 C9.52796935,9.80490421 10.2056705,9.43402299 10.3445211,9.04965517 C10.4824521,8.66467433 10.4824521,8.33501916 10.4412261,8.26636015 Z" id="WhatsApp"></path>
            </g>
        </g>
        <g id="whatsapp" transform="translate(2.000000, 2.000000)">
            <circle id="Oval" fill="#1CD86D" cx="14" cy="14" r="14"></circle>
            <g id="whatsapp-logo" transform="translate(7.000000, 7.000000)" fill="#FFFFFF" fill-rule="nonzero">
                <path d="M14,6.81971111 C14,10.5861778 10.9232667,13.6394222 7.12724444,13.6394222 C5.92215556,13.6394222 4.79002222,13.3314222 3.80504444,12.7908667 L0,14 L1.24055556,10.3410222 C0.614755556,9.31342222 0.254333333,8.10817778 0.254333333,6.81971111 C0.254333333,3.05324444 3.33137778,0 7.12724444,0 C10.9235778,0 14,3.05324444 14,6.81971111 Z M7.12724444,1.08608889 C3.94084444,1.08608889 1.34897778,3.6582 1.34897778,6.81971111 C1.34897778,8.07426667 1.75793333,9.23611111 2.44968889,10.1812667 L1.72775556,12.3106667 L3.94831111,11.6049111 C4.86064444,12.2039556 5.95357778,12.5533333 7.1274,12.5533333 C10.3133333,12.5533333 12.9056667,9.98153333 12.9056667,6.82002222 C12.9056667,3.65851111 10.3134889,1.08608889 7.12724444,1.08608889 Z M10.5978444,8.39035556 C10.5553778,8.32082222 10.4432222,8.27882222 10.2749111,8.19528889 C10.1062889,8.11175556 9.2778,7.70715556 9.1238,7.65162222 C8.96933333,7.59593333 8.85671111,7.56793333 8.74455556,7.73515556 C8.6324,7.90253333 8.30946667,8.27882222 8.211,8.39035556 C8.11268889,8.5022 8.01453333,8.5162 7.84591111,8.43251111 C7.6776,8.34897778 7.13486667,8.17226667 6.49133333,7.60293333 C5.9906,7.15991111 5.65242222,6.61297778 5.55411111,6.44544444 C5.45595556,6.27822222 5.54384444,6.18784444 5.628,6.10462222 C5.70391111,6.02964444 5.79662222,5.9094 5.88077778,5.81186667 C5.96524444,5.71417778 5.99324444,5.64464444 6.04908889,5.53295556 C6.10555556,5.42142222 6.0774,5.32388889 6.03508889,5.24004444 C5.99308889,5.15651111 5.65584444,4.33393333 5.51553333,3.99917778 C5.37522222,3.66473333 5.23506667,3.72042222 5.1366,3.72042222 C5.03844444,3.72042222 4.92597778,3.70642222 4.81366667,3.70642222 C4.70135556,3.70642222 4.51873333,3.74826667 4.36426667,3.91548889 C4.20995556,4.08286667 3.77486667,4.48731111 3.77486667,5.30973333 C3.77486667,6.13231111 4.37826667,6.92704444 4.46273333,7.03842222 C4.54688889,7.1498 5.62784444,8.89264444 7.34051111,9.562 C9.05333333,10.2310444 9.05333333,10.0078222 9.36226667,9.97982222 C9.67088889,9.95197778 10.3587556,9.57553333 10.4996889,9.1854 C10.6396889,8.79464444 10.6396889,8.46004444 10.5978444,8.39035556 Z" id="WhatsApp"></path>
            </g>
        </g>
    </g>
</svg>