<?xml version="1.0" encoding="UTF-8"?>
<svg width="32px" height="64px" viewBox="0 0 32 64" version="1.1" xmlns="http://www.w3.org/2000/svg" xmlns:xlink="http://www.w3.org/1999/xlink">
    <!-- Generator: Sketch 49.1 (51147) - http://www.bohemiancoding.com/sketch -->
    <title>Icons/Sprites/yandex-maps</title>
    <desc>Created with Sketch.</desc>
    <defs></defs>
    <g id="Icons/Sprites/yandex-maps" stroke="none" stroke-width="1" fill="none" fill-rule="evenodd">
        <g id="maps-unactive" transform="translate(2.000000, 34.000000)">
            <circle id="Oval" fill="#C1C9DA" cx="14" cy="14" r="14"></circle>
            <path d="M19.25,11.9583333 C19.2491588,12.1099699 19.2430857,12.2615323 19.2317917,12.41275 C19.0497083,14.7054167 17.5344583,17.0598333 16.1815,19.3081667 L13.7083333,23.105 L13.7083333,17.5 C10.6477553,17.5 8.16666667,15.0189113 8.16666667,11.9583333 C8.16666667,8.89775534 10.6477553,6.41666667 13.7083333,6.41666667 C16.7689113,6.41666667 19.25,8.89775534 19.25,11.9583333 Z M13.7083333,14.3333333 C15.0200096,14.3333333 16.0833333,13.2700096 16.0833333,11.9583333 C16.0833333,10.6466571 15.0200096,9.58333333 13.7083333,9.58333333 C12.3966571,9.58333333 11.3333333,10.6466571 11.3333333,11.9583333 C11.3333333,13.2700096 12.3966571,14.3333333 13.7083333,14.3333333 Z" id="Combined-Shape" fill="#FFFFFF" fill-rule="nonzero"></path>
        </g>
        <g id="maps" transform="translate(2.000000, 2.000000)">
            <circle id="Oval" fill="#E2E2E2" cx="14" cy="14" r="14"></circle>
            <path d="M19.25,11.9583333 C19.2491588,12.1099699 19.2430857,12.2615323 19.2317917,12.41275 C19.0497083,14.7054167 17.5344583,17.0598333 16.1815,19.3081667 L13.7083333,23.105 L13.7083333,17.5 C10.6477553,17.5 8.16666667,15.0189113 8.16666667,11.9583333 C8.16666667,8.89775534 10.6477553,6.41666667 13.7083333,6.41666667 C16.7689113,6.41666667 19.25,8.89775534 19.25,11.9583333 Z M13.7083333,14.3333333 C15.0200096,14.3333333 16.0833333,13.2700096 16.0833333,11.9583333 C16.0833333,10.6466571 15.0200096,9.58333333 13.7083333,9.58333333 C12.3966571,9.58333333 11.3333333,10.6466571 11.3333333,11.9583333 C11.3333333,13.2700096 12.3966571,14.3333333 13.7083333,14.3333333 Z" id="Combined-Shape" fill="#FF3333" fill-rule="nonzero"></path>
        </g>
    </g>
</svg>