<?xml version="1.0" encoding="UTF-8"?>
<svg width="32px" height="64px" viewBox="0 0 32 64" version="1.1" xmlns="http://www.w3.org/2000/svg" xmlns:xlink="http://www.w3.org/1999/xlink">
    <!-- Generator: Sketch 49.1 (51147) - http://www.bohemiancoding.com/sketch -->
    <title>Icons/Sprites/you-tube</title>
    <desc>Created with Sketch.</desc>
    <defs></defs>
    <g id="Icons/Sprites/you-tube" stroke="none" stroke-width="1" fill="none" fill-rule="evenodd">
        <g id="you-tube-unactive" transform="translate(2.000000, 34.000000)">
            <circle id="Oval" fill="#C1C9DA" cx="14" cy="14" r="14"></circle>
            <g id="youtube" transform="translate(7.777778, 9.851852)" fill="#FEFEFE">
                <path d="M12.2269842,7.27870441 C12.0744377,7.9404607 11.5331319,8.42857358 10.8816535,8.50124055 C9.33869752,8.67380206 7.77716906,8.67470364 6.22195163,8.67380206 C4.66673419,8.67470364 3.1048451,8.67380206 1.56152846,8.50124055 C0.910050132,8.42857358 0.369104938,7.9404607 0.216919023,7.27870441 C0,6.33601725 0,5.3073198 0,4.33704444 C0,3.36676908 0.00252441091,2.337711 0.219443434,1.39538447 C0.371629349,0.733628184 0.912574543,0.245334989 1.56405287,0.172487703 C3.10736951,0.00010650058 4.6692586,-0.000795074744 6.22447604,0.00010650058 C7.77933284,-0.000795074744 9.34122193,0.00010650058 10.8839976,0.172487703 C11.5358366,0.245334989 12.0771424,0.733447869 12.2293283,1.39538447 C12.4462474,2.33789132 12.4444442,3.36676908 12.4444442,4.33704444 C12.4444442,5.3073198 12.4439033,6.33619756 12.2269842,7.27870441 Z M4.61642629,6.26857941 C5.93885698,5.58284122 7.2497475,4.90341406 8.57271913,4.21731524 C7.24578057,3.52490539 5.93525067,2.84151129 4.61642629,2.15324869 C4.61642629,3.52977389 4.61642629,4.89223452 4.61642629,6.26857941 Z" id="Combined-Shape"></path>
            </g>
        </g>
        <g id="you-tube" transform="translate(2.000000, 2.000000)">
            <circle id="Oval" fill="#FC0D1C" cx="14" cy="14" r="14"></circle>
            <g id="youtube" transform="translate(7.777778, 9.851852)" fill="#FEFEFE">
                <path d="M12.2269842,7.27870441 C12.0744377,7.9404607 11.5331319,8.42857358 10.8816535,8.50124055 C9.33869752,8.67380206 7.77716906,8.67470364 6.22195163,8.67380206 C4.66673419,8.67470364 3.1048451,8.67380206 1.56152846,8.50124055 C0.910050132,8.42857358 0.369104938,7.9404607 0.216919023,7.27870441 C0,6.33601725 0,5.3073198 0,4.33704444 C0,3.36676908 0.00252441091,2.337711 0.219443434,1.39538447 C0.371629349,0.733628184 0.912574543,0.245334989 1.56405287,0.172487703 C3.10736951,0.00010650058 4.6692586,-0.000795074744 6.22447604,0.00010650058 C7.77933284,-0.000795074744 9.34122193,0.00010650058 10.8839976,0.172487703 C11.5358366,0.245334989 12.0771424,0.733447869 12.2293283,1.39538447 C12.4462474,2.33789132 12.4444442,3.36676908 12.4444442,4.33704444 C12.4444442,5.3073198 12.4439033,6.33619756 12.2269842,7.27870441 Z M4.61642629,6.26857941 C5.93885698,5.58284122 7.2497475,4.90341406 8.57271913,4.21731524 C7.24578057,3.52490539 5.93525067,2.84151129 4.61642629,2.15324869 C4.61642629,3.52977389 4.61642629,4.89223452 4.61642629,6.26857941 Z" id="Combined-Shape"></path>
            </g>
        </g>
    </g>
</svg>