<?xml version="1.0" encoding="UTF-8"?>
<svg width="32px" height="64px" viewBox="0 0 32 64" version="1.1" xmlns="http://www.w3.org/2000/svg" xmlns:xlink="http://www.w3.org/1999/xlink">
    <!-- Generator: Sketch 49.1 (51147) - http://www.bohemiancoding.com/sketch -->
    <title>Icons/Sprites/zvooq</title>
    <desc>Created with Sketch.</desc>
    <defs>
        <linearGradient x1="1.72254642e-14%" y1="-1.11022302e-14%" x2="100%" y2="100%" id="linearGradient-1">
            <stop stop-color="#414040" offset="0%"></stop>
            <stop stop-color="#000000" offset="100%"></stop>
        </linearGradient>
        <linearGradient x1="1.72254642e-14%" y1="-1.11022302e-14%" x2="100%" y2="100%" id="linearGradient-2">
            <stop stop-color="#FF9D6B" offset="0%"></stop>
            <stop stop-color="#FE00FF" offset="100%"></stop>
        </linearGradient>
        <linearGradient x1="0%" y1="0%" x2="100%" y2="100%" id="linearGradient-3">
            <stop stop-color="#99F6B3" offset="0%"></stop>
            <stop stop-color="#00F2FF" offset="100%"></stop>
        </linearGradient>
        <linearGradient x1="50%" y1="0%" x2="50%" y2="100%" id="linearGradient-4">
            <stop stop-color="#FFFFFF" offset="0%"></stop>
            <stop stop-color="#E5FBFF" offset="100%"></stop>
        </linearGradient>
    </defs>
    <g id="Icons/Sprites/zvooq" stroke="none" stroke-width="1" fill="none" fill-rule="evenodd">
        <g id="zvooq-unactive" transform="translate(2.000000, 34.000000)">
            <circle id="Oval" fill="#C1C9DA" cx="14" cy="14" r="14"></circle>
            <path d="M16.5691086,15.0578198 C15.3293299,15.0578198 14.3207652,16.1340205 14.3207652,17.4569797 C14.3207652,17.4655802 14.3210189,17.4741807 14.3213993,17.4799987 C14.3158188,17.6807192 14.3421997,18.3200651 14.8076716,19.2011104 C15.4177315,20.3556009 16.5143174,21.438758 18.067497,22.4209856 C18.0976829,22.4436251 18.1320542,22.461332 18.1693427,22.4730945 C18.2028263,22.4835922 18.2371976,22.4887777 18.2714421,22.4887777 C18.3075891,22.4887777 18.3436093,22.4829598 18.377727,22.4717032 C18.4181863,22.4572847 18.4450746,22.4432457 18.4694262,22.4260447 C20.0226058,21.4438171 21.1191916,20.3606601 21.7292516,19.2061695 C22.1947235,18.3251242 22.2211044,17.6857783 22.2155238,17.4849313 C22.2157775,17.4792398 22.216158,17.4706393 22.216158,17.4620388 C22.216158,16.1390796 21.2074664,15.0628789 19.9676877,15.0628789 C19.3013146,15.0628789 18.4694262,15.4428186 18.2709348,16.3064099 C18.067497,15.4377595 17.2356086,15.0578198 16.5691086,15.0578198 Z" id="Fill-1" fill="#FFFFFF"></path>
            <path d="M15.070505,5.35089377 C14.9645065,5.29030633 14.8330581,5.28919802 14.7260415,5.34818458 C14.6190249,5.40717113 14.5529826,5.51713979 14.5529826,5.63634435 L14.5529826,13.1005446 C14.5529826,13.219626 14.6190249,13.3297178 14.7260415,13.3887043 C14.7787227,13.4177666 14.8372573,13.4322978 14.8957919,13.4322978 C14.9562353,13.4322978 15.0166786,13.4167815 15.070505,13.3859952 L21.583627,9.65395662 C21.687844,9.59410805 21.7517231,9.48561712 21.7517231,9.36838289 C21.7517231,9.2512718 21.687844,9.14265773 21.583627,9.08293231 L15.070505,5.35089377 Z" id="Fill-3" fill="#FFFFFF"></path>
            <path d="M11.9985908,5.95891375 C11.9985908,5.80260416 11.9119031,5.65898911 11.773151,5.5853864 C11.398107,5.38624874 10.8191358,5.82978844 10.8191358,6.38270638 L10.8191358,17.2838892 C8.57946535,16.2103667 5.9609375,17.8586059 5.9609375,20.0870755 C5.9609375,21.2661294 6.74358191,22.2565603 8.52397521,22.2565603 C10.2839562,22.2565603 11.9886431,20.6739737 11.9985908,17.9619574 L11.9985908,5.95891375 Z" id="Fill-5" fill="#FFFFFF"></path>
        </g>
        <g id="zvooq" transform="translate(2.000000, 2.000000)">
            <circle id="Oval" fill="url(#linearGradient-1)" cx="14" cy="14" r="14"></circle>
            <path d="M16.5691086,15.0578198 C15.3293299,15.0578198 14.3207652,16.1340205 14.3207652,17.4569797 C14.3207652,17.4655802 14.3210189,17.4741807 14.3213993,17.4799987 C14.3158188,17.6807192 14.3421997,18.3200651 14.8076716,19.2011104 C15.4177315,20.3556009 16.5143174,21.438758 18.067497,22.4209856 C18.0976829,22.4436251 18.1320542,22.461332 18.1693427,22.4730945 C18.2028263,22.4835922 18.2371976,22.4887777 18.2714421,22.4887777 C18.3075891,22.4887777 18.3436093,22.4829598 18.377727,22.4717032 C18.4181863,22.4572847 18.4450746,22.4432457 18.4694262,22.4260447 C20.0226058,21.4438171 21.1191916,20.3606601 21.7292516,19.2061695 C22.1947235,18.3251242 22.2211044,17.6857783 22.2155238,17.4849313 C22.2157775,17.4792398 22.216158,17.4706393 22.216158,17.4620388 C22.216158,16.1390796 21.2074664,15.0628789 19.9676877,15.0628789 C19.3013146,15.0628789 18.4694262,15.4428186 18.2709348,16.3064099 C18.067497,15.4377595 17.2356086,15.0578198 16.5691086,15.0578198 Z" id="Fill-1" fill="url(#linearGradient-2)"></path>
            <path d="M15.070505,5.35089377 C14.9645065,5.29030633 14.8330581,5.28919802 14.7260415,5.34818458 C14.6190249,5.40717113 14.5529826,5.51713979 14.5529826,5.63634435 L14.5529826,13.1005446 C14.5529826,13.219626 14.6190249,13.3297178 14.7260415,13.3887043 C14.7787227,13.4177666 14.8372573,13.4322978 14.8957919,13.4322978 C14.9562353,13.4322978 15.0166786,13.4167815 15.070505,13.3859952 L21.583627,9.65395662 C21.687844,9.59410805 21.7517231,9.48561712 21.7517231,9.36838289 C21.7517231,9.2512718 21.687844,9.14265773 21.583627,9.08293231 L15.070505,5.35089377 Z" id="Fill-3" fill="url(#linearGradient-3)"></path>
            <path d="M11.9985908,5.95891375 C11.9985908,5.80260416 11.9119031,5.65898911 11.773151,5.5853864 C11.398107,5.38624874 10.8191358,5.82978844 10.8191358,6.38270638 L10.8191358,17.2838892 C8.57946535,16.2103667 5.9609375,17.8586059 5.9609375,20.0870755 C5.9609375,21.2661294 6.74358191,22.2565603 8.52397521,22.2565603 C10.2839562,22.2565603 11.9886431,20.6739737 11.9985908,17.9619574 L11.9985908,5.95891375 Z" id="Fill-5" fill="url(#linearGradient-4)"></path>
        </g>
    </g>
</svg>