<svg width="326" height="93" viewBox="0 0 326 93" fill="none" xmlns="http://www.w3.org/2000/svg">
<path d="M18.032 93H0.240001V3.39999H32.368L51.44 56.776H55.024L74.096 3.39999H105.584V93H87.92V20.936H83.952L65.392 72.776H40.432L21.872 20.936H18.032V93ZM141.347 93H124.835V27.208H141.347V93ZM133.027 18.76C130.382 18.76 128.163 17.9067 126.371 16.2C124.664 14.4933 123.811 12.3173 123.811 9.672C123.811 7.11199 124.664 4.97866 126.371 3.272C128.163 1.47999 130.382 0.583992 133.027 0.583992C135.672 0.583992 137.891 1.47999 139.683 3.272C141.475 4.97866 142.371 7.11199 142.371 9.672C142.371 12.3173 141.475 14.4933 139.683 16.2C137.976 17.9067 135.758 18.76 133.027 18.76ZM171.626 93H152.17L176.362 47.56L154.218 3.39999H173.802L191.338 39.496H199.274L216.81 3.39999H236.01L213.994 47.56L238.058 93H218.218L199.018 55.88H190.954L171.626 93ZM258.876 93H239.42L263.612 47.56L241.468 3.39999H261.052L278.588 39.496H286.524L304.06 3.39999H323.26L301.244 47.56L325.308 93H305.468L286.268 55.88H278.204L258.876 93Z" fill="white"/>
</svg>
