<svg width="341" height="107" viewBox="0 0 341 107" fill="none" xmlns="http://www.w3.org/2000/svg">
<path d="M416.402 951C336.098 951 261.467 930.041 192.511 888.124C123.554 845.333 68.5626 787.697 27.5376 715.215C-13.4875 641.86 -34 561.955 -34 475.5C-34 389.045 -13.4875 309.577 27.5376 237.095C68.5626 163.74 123.554 106.103 192.511 64.186C261.467 21.3953 336.098 0 416.402 0C489.724 0 555.189 16.5923 612.799 49.7769C670.408 82.0882 717.543 124.442 754.204 176.839C791.737 228.362 817.487 283.815 831.453 343.198H636.366C624.146 299.534 598.833 261.547 560.426 229.236C522.02 196.924 474.012 180.769 416.402 180.769C369.267 180.769 325.624 193.868 285.471 220.066C245.319 245.391 213.023 280.759 188.583 326.169C165.015 370.707 153.231 420.483 153.231 475.5C153.231 530.517 165.015 580.73 188.583 626.141C213.023 670.678 245.319 706.046 285.471 732.244C325.624 757.569 369.267 770.231 416.402 770.231C474.012 770.231 522.02 754.512 560.426 723.074C599.706 690.763 627.201 652.776 642.913 609.112H838C824.034 667.621 798.284 723.074 760.751 775.471C724.09 826.995 676.082 869.349 616.727 902.533C558.244 934.844 491.469 951 416.402 951Z" fill="#FF5911"/>
</svg>
