<svg width="560" height="600" viewBox="0 0 560 600" fill="none" xmlns="http://www.w3.org/2000/svg">
<path d="M620.39 130.126C689.419 161.228 750.944 216.113 804.967 294.783C858.989 373.453 886 475.906 886 602.143C886 702.767 864.241 795.158 820.723 879.316C777.205 963.474 715.68 1030.25 636.147 1079.65C558.115 1127.22 469.578 1151 370.537 1151H-325V-770H343.526C436.564 -770 519.098 -747.131 591.128 -701.393C664.659 -655.655 721.682 -593.451 762.199 -514.781C802.716 -437.941 822.974 -351.954 822.974 -256.818C822.974 -154.365 802.716 -70.2071 762.199 -4.34424C721.682 61.5186 674.413 106.342 620.39 130.126ZM-3.1171 -435.197V-9.83276H305.26C362.284 -9.83276 408.803 -29.9576 444.818 -70.2072C482.333 -110.457 501.091 -161.683 501.091 -223.887C501.091 -284.261 482.333 -334.573 444.818 -374.823C407.302 -415.072 360.783 -435.197 305.26 -435.197H-3.1171ZM334.522 816.197C402.05 816.197 456.823 793.328 498.84 747.59C542.358 700.022 564.117 638.733 564.117 563.723C564.117 490.542 542.358 431.083 498.84 385.344C456.823 337.777 402.05 313.993 334.522 313.993H-3.1171V816.197H334.522Z" fill="#FF5911"/>
</svg>
