<svg width="341" height="268" viewBox="0 0 341 268" fill="none" xmlns="http://www.w3.org/2000/svg">
<path d="M346.553 334.548H-121.373V585H734.677V390.809L321.162 -26.61C269.17 -78.6362 231.083 -119.168 206.901 -148.206C181.509 -177.244 163.373 -204.467 152.491 -229.875C140.4 -256.493 134.354 -285.531 134.354 -316.989C134.354 -361.755 151.282 -398.053 185.137 -425.881C217.783 -454.919 260.101 -469.438 312.093 -469.438C367.712 -469.438 413.658 -452.499 449.932 -418.621C484.996 -384.744 502.528 -340.582 502.528 -286.136H751C751 -365.99 732.259 -437.98 694.776 -502.105C656.085 -566.23 603.489 -616.442 536.988 -652.739C469.277 -690.246 394.313 -709 312.093 -709C225.037 -709 148.863 -692.061 83.5714 -658.184C17.0704 -625.516 -34.3169 -580.144 -70.5901 -522.069C-106.863 -465.203 -125 -401.078 -125 -329.693C-125 -271.617 -114.118 -217.776 -92.3541 -168.17C-71.7993 -118.563 -43.3851 -71.9818 -7.11182 -28.425C27.9523 13.9219 75.1076 64.7383 134.354 124.024L346.553 334.548Z" fill="#5F00E2"/>
</svg>
