<svg width="341" height="268" viewBox="0 0 341 268" fill="none" xmlns="http://www.w3.org/2000/svg">
<path d="M313.353 -34.1771C355.363 -15.2828 392.807 18.0601 425.684 65.8515C458.561 113.643 475 175.883 475 252.571C475 313.7 461.758 369.827 435.273 420.953C408.789 472.079 371.345 512.646 322.942 542.654C275.453 571.551 221.571 586 161.296 586H-262V-581H144.857C201.479 -581 251.708 -567.107 295.545 -539.321C340.294 -511.536 374.998 -473.747 399.656 -425.956C424.314 -379.276 436.643 -327.039 436.643 -269.244C436.643 -207.004 424.314 -155.879 399.656 -115.867C374.998 -75.8557 346.23 -48.6257 313.353 -34.1771ZM-66.1059 -377.609V-119.201H121.569C156.273 -119.201 184.584 -131.427 206.502 -155.879C229.333 -180.33 240.749 -211.45 240.749 -249.239C240.749 -285.916 229.333 -316.48 206.502 -340.931C183.67 -365.383 155.359 -377.609 121.569 -377.609H-66.1059ZM139.377 382.609C180.474 382.609 213.808 368.716 239.379 340.93C265.864 312.033 279.106 274.8 279.106 229.231C279.106 184.774 265.864 148.653 239.379 120.867C213.808 91.9701 180.474 77.5214 139.377 77.5214H-66.1059V382.609H139.377Z" fill="#FF5911"/>
</svg>
