<svg width="272" height="235" viewBox="0 0 272 235" fill="none" xmlns="http://www.w3.org/2000/svg">
<path fill-rule="evenodd" clip-rule="evenodd" d="M187.711 184.08L340.698 95.7534L240.376 -78.0095L87.6753 10.1523C87.5796 10.2072 87.484 10.2621 87.3885 10.3173C39.4051 38.0205 22.9648 99.3765 50.668 147.36C78.3712 195.343 139.727 211.783 187.711 184.08C187.711 184.08 187.711 184.08 187.711 184.08L187.711 184.08Z" fill="black"/>
<path fill-rule="evenodd" clip-rule="evenodd" d="M52.8629 43.3766C138.174 62.905 230.388 86.2256 298.073 120.363L187.711 184.08L187.711 184.08L187.711 184.08C139.727 211.783 78.3713 195.343 50.6681 147.36C31.3414 113.885 33.4991 73.9015 52.8629 43.3766Z" fill="black"/>
</svg>
