<svg width="580" height="416" viewBox="0 0 580 416" fill="none" xmlns="http://www.w3.org/2000/svg">
<path d="M916.862 1805C719.693 1805 536.454 1753.58 367.146 1650.75C197.837 1545.78 62.8194 1404.38 -37.9083 1226.57C-138.636 1046.61 -189 850.591 -189 638.5C-189 426.409 -138.636 231.457 -37.9083 53.6434C62.8194 -126.313 197.837 -267.707 367.146 -370.539C536.454 -475.513 719.693 -528 916.862 -528C1096.89 -528 1257.62 -487.296 1399.07 -405.887C1540.52 -326.621 1656.25 -222.717 1746.26 -94.1776C1838.41 32.2199 1901.64 168.258 1935.93 313.937H1456.93C1426.93 206.82 1364.78 113.629 1270.48 34.3622C1176.18 -44.9041 1058.31 -84.5372 916.862 -84.5372C801.132 -84.5372 693.975 -52.4022 595.39 11.8679C496.806 73.9954 417.509 160.76 357.501 272.161C299.637 381.42 270.704 503.533 270.704 638.5C270.704 773.467 299.637 896.651 357.501 1008.05C417.509 1117.31 496.806 1204.08 595.39 1268.35C693.975 1330.47 801.132 1361.54 916.862 1361.54C1058.31 1361.54 1176.18 1322.98 1270.48 1245.85C1366.92 1166.58 1434.43 1073.39 1473.01 966.277H1952C1917.71 1109.81 1854.49 1245.85 1762.33 1374.39C1672.32 1500.79 1554.45 1604.69 1408.71 1686.1C1265.12 1765.37 1101.17 1805 916.862 1805Z" fill="#FF5911"/>
</svg>
