<svg width="580" height="200" viewBox="0 0 580 200" fill="none" xmlns="http://www.w3.org/2000/svg">
<path d="M391.447 398.226H-430.627V837H1073.32V496.791L346.839 -234.499C255.497 -325.646 188.584 -396.655 146.099 -447.527C101.491 -498.4 69.6272 -546.092 50.5093 -590.606C29.267 -637.239 18.6458 -688.111 18.6458 -743.223C18.6458 -821.651 48.3851 -885.242 107.863 -933.994C165.217 -984.867 239.565 -1010.3 330.907 -1010.3C428.621 -1010.3 509.341 -980.627 573.068 -921.276C634.671 -861.925 665.472 -784.557 665.472 -689.171H1102C1102 -829.07 1069.07 -955.191 1003.22 -1067.53C935.248 -1179.88 842.845 -1267.84 726.012 -1331.43C607.056 -1397.14 475.354 -1430 330.907 -1430C177.963 -1430 44.1365 -1400.32 -70.5715 -1340.97C-187.404 -1283.74 -277.683 -1204.25 -341.41 -1102.51C-405.137 -1002.88 -437 -890.541 -437 -765.479C-437 -663.735 -417.882 -569.409 -379.646 -482.502C-343.534 -395.595 -293.615 -313.987 -229.888 -237.679C-168.286 -163.49 -85.4412 -74.4631 18.6458 29.4012L391.447 398.226Z" fill="#5F00E2"/>
</svg>
