<svg width="1368" height="1282" viewBox="0 0 1368 1282" fill="none" xmlns="http://www.w3.org/2000/svg">
<path fill-rule="evenodd" clip-rule="evenodd" d="M749.764 1281.51V1049.91L629.209 932.789C562.756 1018.25 526.275 1136.4 526.275 1266.91C526.275 1271.8 526.335 1276.66 526.456 1281.51H749.764Z" fill="#FF5911"/>
<path fill-rule="evenodd" clip-rule="evenodd" d="M0.202637 1171.06V1049.91L308.468 621.177L493.422 800.862C436.86 1014.06 242.557 1171.19 11.5571 1171.19C7.76222 1171.19 3.97725 1171.15 0.202637 1171.06Z" fill="#FF5911"/>
<path fill-rule="evenodd" clip-rule="evenodd" d="M510.083 672.69C510.083 501.134 423.422 349.819 291.488 260.134L390.028 0.59082L1323.34 140.121L1367.15 1205.66L1292.61 1197.32C1268.98 969.563 1128.85 794.779 911.238 794.779C791.567 794.779 695.327 847.637 629.008 933.095L493.424 800.964C504.292 760.036 510.083 717.039 510.083 672.69Z" fill="#641AEA"/>
</svg>
