<svg width="580" height="384" viewBox="0 0 580 384" fill="none" xmlns="http://www.w3.org/2000/svg">
<path d="M389.832 805.645H-430.64V1245H1070.38V904.341L345.311 172.083C254.147 80.8158 187.364 9.71252 144.963 -41.2272C100.441 -92.1669 68.6396 -139.923 49.559 -184.495C28.358 -231.19 17.7576 -282.129 17.7576 -337.314C17.7576 -415.846 47.439 -479.521 106.801 -528.338C164.044 -579.278 238.246 -604.747 329.41 -604.747C426.934 -604.747 507.497 -575.033 571.099 -515.603C632.582 -456.173 663.323 -378.703 663.323 -283.191H1099C1099 -423.275 1066.14 -549.563 1000.42 -662.055C932.574 -774.546 840.35 -862.63 723.745 -926.304C605.021 -992.101 473.576 -1025 329.41 -1025C176.764 -1025 43.1986 -995.285 -71.2858 -935.856C-187.89 -878.548 -277.994 -798.955 -341.596 -697.076C-405.199 -597.319 -437 -484.827 -437 -359.6C-437 -257.721 -417.919 -163.27 -379.758 -76.2482C-343.717 10.7738 -293.895 92.4895 -230.292 168.899C-168.81 243.186 -86.1265 332.331 17.7576 436.333L389.832 805.645Z" fill="#5F00E2"/>
</svg>
