<svg width="341" height="268" viewBox="0 0 341 268" fill="none" xmlns="http://www.w3.org/2000/svg">
<path d="M350.553 621.548H-117.373V872H738.677V677.809L325.162 260.39C273.17 208.364 235.083 167.832 210.901 138.794C185.509 109.756 167.373 82.533 156.491 57.1248C144.4 30.5068 138.354 1.46896 138.354 -29.9887C138.354 -74.7555 155.282 -111.053 189.137 -138.881C221.783 -167.919 264.101 -182.438 316.093 -182.438C371.712 -182.438 417.658 -165.499 453.932 -131.621C488.996 -97.7438 506.528 -53.582 506.528 0.864014H755C755 -78.9901 736.259 -150.98 698.776 -215.105C660.085 -279.23 607.489 -329.442 540.988 -365.739C473.277 -403.246 398.313 -422 316.093 -422C229.037 -422 152.863 -405.061 87.5714 -371.184C21.0704 -338.516 -30.3169 -293.144 -66.5901 -235.069C-102.863 -178.203 -121 -114.078 -121 -42.6927C-121 15.3829 -110.118 69.224 -88.3541 118.83C-67.7993 168.437 -39.3851 215.018 -3.11182 258.575C31.9523 300.922 79.1076 351.738 138.354 411.024L350.553 621.548Z" fill="#5F00E2"/>
</svg>
