<svg width="341" height="190" viewBox="0 0 341 190" fill="none" xmlns="http://www.w3.org/2000/svg">
<path d="M428.516 779C336.424 779 250.839 754.956 171.76 706.868C92.6807 657.778 29.6176 591.657 -17.4294 508.504C-64.4764 424.35 -88 332.682 -88 233.5C-88 134.318 -64.4764 43.1511 -17.4294 -40.0013C29.6176 -124.156 92.6807 -190.277 171.76 -238.365C250.839 -287.455 336.424 -312 428.516 -312C512.6 -312 587.676 -292.965 653.742 -254.895C719.808 -217.827 773.862 -169.238 815.904 -109.128C858.947 -50.0197 888.476 13.5969 904.492 81.7218H680.769C666.755 31.6299 637.726 -11.95 593.682 -49.0179C549.638 -86.0859 494.582 -104.62 428.516 -104.62C374.462 -104.62 324.412 -89.5923 278.366 -59.5372C232.32 -30.4839 195.283 10.0905 167.255 62.186C140.228 113.28 126.715 170.384 126.715 233.5C126.715 296.616 140.228 354.221 167.255 406.317C195.283 457.411 232.32 497.985 278.366 528.04C324.412 557.093 374.462 571.62 428.516 571.62C494.582 571.62 549.638 553.587 593.682 517.521C638.727 480.453 670.258 436.873 688.276 386.781H912C895.984 453.904 866.454 517.521 823.411 577.631C781.369 636.739 726.314 685.328 658.246 723.398C591.179 760.466 514.602 779 428.516 779Z" fill="#FF5911"/>
</svg>
