<svg width="341" height="380" viewBox="0 0 341 380" fill="none" xmlns="http://www.w3.org/2000/svg">
<path d="M607.834 294.349C586.026 342.857 547.54 386.093 492.377 424.056C437.214 462.019 365.374 481 276.857 481C206.3 481 141.516 465.709 82.5042 435.128C23.4929 404.547 -23.3315 361.312 -57.9685 305.422C-91.3228 250.587 -108 188.37 -108 118.771L-108 -370L1239 -370L1239 99.7899C1239 165.17 1222.96 223.169 1190.89 273.786C1158.82 325.458 1115.2 365.53 1060.04 394.002C1006.16 422.474 945.867 436.71 879.159 436.71C807.319 436.71 748.307 422.474 702.124 394.002C655.941 365.53 624.511 332.312 607.834 294.349ZM1004.24 -143.805L705.973 -143.805L705.973 72.8996C705.973 112.971 720.084 145.662 748.307 170.97C776.53 197.333 812.45 210.515 856.067 210.515C898.401 210.515 933.68 197.333 961.903 170.97C990.126 144.607 1004.24 111.917 1004.24 72.8996L1004.24 -143.805ZM126.763 93.4628C126.763 140.916 142.799 179.406 174.87 208.933C208.224 239.514 251.2 254.805 303.797 254.805C355.111 254.805 396.804 239.514 428.876 208.933C462.23 179.406 478.907 140.916 478.907 93.4628L478.907 -143.805L126.763 -143.805L126.763 93.4628Z" fill="#FF5911"/>
</svg>
