<svg width="341" height="190" viewBox="0 0 341 190" fill="none" xmlns="http://www.w3.org/2000/svg">
<path d="M428.516 979C336.424 979 250.839 954.956 171.76 906.868C92.6807 857.778 29.6176 791.657 -17.4294 708.504C-64.4764 624.35 -88 532.682 -88 433.5C-88 334.318 -64.4764 243.151 -17.4294 159.999C29.6176 75.8444 92.6807 9.72314 171.76 -38.365C250.839 -87.455 336.424 -112 428.516 -112C512.6 -112 587.676 -92.9651 653.742 -54.8953C719.808 -17.8273 773.862 30.7618 815.904 90.8719C858.947 149.98 888.476 213.597 904.492 281.722H680.769C666.755 231.63 637.726 188.05 593.682 150.982C549.638 113.914 494.582 95.3802 428.516 95.3802C374.462 95.3802 324.412 110.408 278.366 140.463C232.32 169.516 195.283 210.09 167.255 262.186C140.228 313.28 126.715 370.384 126.715 433.5C126.715 496.616 140.228 554.221 167.255 606.317C195.283 657.411 232.32 697.985 278.366 728.04C324.412 757.093 374.462 771.62 428.516 771.62C494.582 771.62 549.638 753.587 593.682 717.521C638.727 680.453 670.258 636.873 688.276 586.781H912C895.984 653.904 866.454 717.521 823.411 777.631C781.369 836.739 726.314 885.328 658.246 923.398C591.179 960.466 514.602 979 428.516 979Z" fill="#FF5911"/>
</svg>
