<svg width="580" height="384" viewBox="0 0 580 384" fill="none" xmlns="http://www.w3.org/2000/svg">
<path d="M912.862 2216C715.693 2216 532.454 2164.58 363.146 2061.75C193.837 1956.78 58.8194 1815.38 -41.9083 1637.57C-142.636 1457.61 -193 1261.59 -193 1049.5C-193 837.409 -142.636 642.457 -41.9083 464.643C58.8194 284.687 193.837 143.293 363.146 40.4615C532.454 -64.5128 715.693 -117 912.862 -117C1092.89 -117 1253.62 -76.2956 1395.07 5.11308C1536.52 84.3794 1652.25 188.283 1742.26 316.822C1834.41 443.22 1897.64 579.258 1931.93 724.937H1452.93C1422.93 617.82 1360.78 524.629 1266.48 445.362C1172.18 366.096 1054.31 326.463 912.862 326.463C797.132 326.463 689.975 358.598 591.39 422.868C492.806 484.995 413.509 571.76 353.501 683.161C295.637 792.42 266.704 914.533 266.704 1049.5C266.704 1184.47 295.637 1307.65 353.501 1419.05C413.509 1528.31 492.806 1615.08 591.39 1679.35C689.975 1741.47 797.132 1772.54 912.862 1772.54C1054.31 1772.54 1172.18 1733.98 1266.48 1656.85C1362.92 1577.58 1430.43 1484.39 1469.01 1377.28H1948C1913.71 1520.81 1850.49 1656.85 1758.33 1785.39C1668.32 1911.79 1550.45 2015.69 1404.71 2097.1C1261.12 2176.37 1097.17 2216 912.862 2216Z" fill="#FF5911"/>
</svg>
