<svg width="580" height="200" viewBox="0 0 580 200" fill="none" xmlns="http://www.w3.org/2000/svg">
<path d="M424.447 210.226H-397.627V649H1106.32V308.791L379.839 -422.499C288.497 -513.646 221.584 -584.655 179.099 -635.527C134.491 -686.4 102.627 -734.092 83.5093 -778.606C62.267 -825.239 51.6458 -876.111 51.6458 -931.223C51.6458 -1009.65 81.3851 -1073.24 140.863 -1121.99C198.217 -1172.87 272.565 -1198.3 363.907 -1198.3C461.621 -1198.3 542.341 -1168.63 606.068 -1109.28C667.671 -1049.93 698.472 -972.557 698.472 -877.171H1135C1135 -1017.07 1102.07 -1143.19 1036.22 -1255.53C968.248 -1367.88 875.845 -1455.84 759.012 -1519.43C640.056 -1585.14 508.354 -1618 363.907 -1618C210.963 -1618 77.1365 -1588.32 -37.5715 -1528.97C-154.404 -1471.74 -244.683 -1392.25 -308.41 -1290.51C-372.137 -1190.88 -404 -1078.54 -404 -953.479C-404 -851.735 -384.882 -757.409 -346.646 -670.502C-310.534 -583.595 -260.615 -501.987 -196.888 -425.679C-135.286 -351.49 -52.4412 -262.463 51.6458 -158.599L424.447 210.226Z" fill="#5F00E2"/>
</svg>
