<svg width="783" height="201" viewBox="0 0 783 201" fill="none" xmlns="http://www.w3.org/2000/svg">
<mask id="mask0_436_163" style="mask-type:alpha" maskUnits="userSpaceOnUse" x="0" y="0" width="783" height="201">
<rect x="0.506836" y="0.791992" width="782.184" height="200" fill="#641AEA"/>
</mask>
<g mask="url(#mask0_436_163)">
<rect x="0.506836" y="0.791992" width="784.272" height="200" fill="#641AEA"/>
<path fill-rule="evenodd" clip-rule="evenodd" d="M746.721 76.052L819.499 32.4883L771.775 -53.2131L699.24 -9.7949C699.158 -9.74689 699.077 -9.69859 698.996 -9.65002C676.17 4.01343 668.349 34.2748 681.528 57.9405C694.706 81.6063 723.894 89.7148 746.721 76.0514C746.721 76.0513 746.721 76.0513 746.721 76.0512L746.721 76.052Z" fill="black"/>
<path fill-rule="evenodd" clip-rule="evenodd" d="M682.572 6.65508C723.155 16.2866 767.022 27.7885 799.221 44.6251L746.745 76.0367L746.721 76.051L746.721 76.0514C723.894 89.7148 694.706 81.6063 681.528 57.9405C672.334 41.4304 673.36 21.7102 682.572 6.65508Z" fill="black"/>
</g>
</svg>
