<svg width="560" height="200" viewBox="0 0 560 200" fill="none" xmlns="http://www.w3.org/2000/svg">
<path d="M509.108 -735.171C581.328 -702.628 645.699 -645.2 702.219 -562.886C758.74 -480.571 787 -373.371 787 -241.286C787 -136 764.235 -39.3285 718.704 48.7286C673.174 136.786 608.803 206.657 525.593 258.343C443.952 308.114 351.322 333 247.701 333H-480V-1677H219.44C316.781 -1677 403.132 -1653.07 478.492 -1605.21C555.423 -1557.36 615.084 -1492.27 657.474 -1409.96C699.864 -1329.56 721.059 -1239.59 721.059 -1140.04C721.059 -1032.84 699.864 -944.786 657.474 -875.871C615.084 -806.957 565.628 -760.057 509.108 -735.171ZM-143.232 -1326.69V-881.614H179.405C239.066 -881.614 287.736 -902.671 325.416 -944.786C364.667 -986.9 384.292 -1040.5 384.292 -1105.59C384.292 -1168.76 364.667 -1221.4 325.416 -1263.51C286.166 -1305.63 237.496 -1326.69 179.405 -1326.69H-143.232ZM210.02 -17.3142C280.671 -17.3142 337.976 -41.2427 381.937 -89.0999C427.467 -138.871 450.232 -203 450.232 -281.486C450.232 -358.057 427.467 -420.271 381.937 -468.128C337.976 -517.9 280.671 -542.786 210.02 -542.786H-143.232V-17.3142H210.02Z" fill="#FF5911"/>
</svg>
