<svg width="339" height="269" viewBox="0 0 339 269" fill="none" xmlns="http://www.w3.org/2000/svg">
<mask id="mask0_383_154" style="mask-type:alpha" maskUnits="userSpaceOnUse" x="0" y="0" width="339" height="269">
<rect y="0.686523" width="339" height="268" rx="20" fill="#1F2229"/>
</mask>
<g mask="url(#mask0_383_154)">
<path d="M0 181.413H24.5973L55.7453 244.159L86.7697 181.413H111.367L67.8587 269.176H43.5084L0 181.413Z" fill="#51C6F3"/>
<path d="M86.7697 255.798L111.367 206.164L111.367 269.176H86.7697V255.798Z" fill="#51C6F3"/>
<path d="M146.658 202.401V181.413H121.813V202.401H146.658Z" fill="#51C6F3"/>
<path d="M0 181.413H24.5973L55.7453 244.159L67.8587 269.176H43.5084L0 181.413Z" fill="#EF2CA0"/>
<path d="M0 206.164L24.5973 255.798L24.5973 269.176H0L0 206.164Z" fill="#EF2CA0"/>
<path d="M192.247 195.727L176.426 216.197L152.446 185.427V181.413H181.122L192.247 195.727Z" fill="#EF2CA0"/>
<path d="M206.461 254.861L222.405 234.392L246.262 265.162V269.176H217.586L206.461 254.861Z" fill="#EF2CA0"/>
<path d="M339 185.427L273.86 269.176H245.184V265.162L310.324 181.413H339V185.427Z" fill="#EF2CA0"/>
<path d="M246.262 185.427L181.122 269.176H152.446V265.162L217.586 181.413H246.262V185.427Z" fill="white"/>
<path d="M284.985 195.727L269.164 216.197L245.184 185.427V181.413H273.86L284.985 195.727Z" fill="white"/>
<path d="M299.199 254.861L315.144 234.392L339 265.162V269.176L310.324 269.176L299.199 254.861Z" fill="white"/>
<path d="M121.813 213.53L121.813 269.176H146.658V213.53H121.813Z" fill="white"/>
</g>
</svg>
