<svg width="448" height="322" viewBox="0 0 448 322" fill="none" xmlns="http://www.w3.org/2000/svg">
<rect x="-24.9104" y="-49.5908" width="617.178" height="477.2" fill="black"/>
<path fill-rule="evenodd" clip-rule="evenodd" d="M346.079 525.17V324.781L241.771 223.445C184.275 297.388 152.71 399.611 152.71 512.535C152.71 516.762 152.763 520.974 152.867 525.17H346.079Z" fill="#FF5911"/>
<path fill-rule="evenodd" clip-rule="evenodd" d="M-302.459 429.603L-302.459 324.78L-35.7413 -46.1689L124.286 109.299C75.3467 293.767 -92.7682 429.713 -292.635 429.713C-295.919 429.713 -299.194 429.676 -302.459 429.603Z" fill="#FF5911"/>
<path fill-rule="evenodd" clip-rule="evenodd" d="M138.702 -1.59827C138.702 -150.033 63.7203 -280.954 -50.4319 -358.552L34.8265 -583.114L842.351 -462.389L880.253 459.543L815.762 452.321C795.321 255.263 674.072 104.036 485.79 104.036C382.248 104.036 298.978 149.77 241.598 223.71L124.288 109.388C133.691 73.9751 138.702 36.7736 138.702 -1.59827Z" fill="#641AEA"/>
</svg>
