<svg width="145" height="36" viewBox="0 0 145 36" fill="none" xmlns="http://www.w3.org/2000/svg">
<path d="M109.858 25.8976L100.638 17.2902L109.232 9.14119C109.437 8.94734 109.291 8.61816 109 8.61816H99.8879L92.1273 16.2002V8.61816H83.8125V26.4231H92.1273V18.6715L100.213 26.4231H109.627C109.919 26.4231 110.064 26.0914 109.856 25.8976H109.858Z" fill="white"/>
<path d="M71.8146 8.61816V17.7815L62.684 8.61816H54.7783V26.4231H62.684V17.2597L71.8146 26.4231H79.7371V8.61816H71.8146Z" fill="white"/>
<path d="M32.2801 8.61816L28.4329 19.4701L24.39 8.61816H15.587L11.5442 19.4701L7.69692 8.61816H0.326105C0.10208 8.61816 -0.0546081 8.82542 0.0179088 9.02415L6.34241 26.4231H16.0105L19.9069 15.9857L23.8034 26.4231H33.4715L39.796 9.02415C39.8685 8.82542 39.7105 8.61816 39.4878 8.61816H32.2814H32.2801Z" fill="white"/>
<path d="M50.702 8.61816H42.3872V26.4231H50.702V8.61816Z" fill="white"/>
<path d="M125.754 0.256028L117.583 7.94905C117.221 8.29042 117.221 8.84515 117.583 9.18652L126.411 17.4977L117.54 25.8551C117.178 26.1965 117.178 26.75 117.54 27.0926L125.712 34.7856C126.074 35.127 126.663 35.127 127.026 34.7856L144.728 18.1194C145.09 17.7781 145.09 17.2234 144.728 16.882L127.069 0.256028C126.706 -0.0853426 126.117 -0.0853426 125.754 0.256028Z" fill="#1F2229"/>
</svg>
