<svg width="349" height="50" viewBox="0 0 349 50" fill="none" xmlns="http://www.w3.org/2000/svg">
<path d="M261.979 24.2195C261.979 27.0062 260.849 28.3175 258.534 28.3175C256.031 28.3175 254.82 27.0062 254.82 24.2195C254.82 21.4595 256.031 20.1215 258.534 20.1215C260.849 20.1215 261.979 21.4595 261.979 24.2195ZM339.416 35.2044C345.687 35.2044 348.81 33.018 348.81 29.084C348.81 25.4777 347.383 24.0556 342.619 23.1541L339.2 22.4984C337.45 22.1705 336.859 21.7873 336.859 20.9677C336.859 20.0396 337.531 19.4659 339.442 19.4659C341.299 19.4659 342.216 20.2855 342.51 21.7607H348.755C347.974 17.1422 345.39 15.0378 339.846 15.0378C333.898 15.0378 330.83 17.2507 330.83 21.0763C330.83 24.574 332.202 25.9407 336.994 26.8423L340.978 27.5799C342.244 27.8258 342.755 28.2909 342.755 29.0817C342.755 30.1206 341.921 30.721 339.929 30.721C338.072 30.721 337.049 29.9833 336.78 28.4261H330.564C331.314 33.2108 333.924 35.2044 339.416 35.2044ZM321.786 34.7126H327.976V10.2287H321.786V34.7126ZM307.09 35.2044C310.051 35.2044 311.934 34.0016 313.038 31.9791V34.7126H318.905V23.0987C318.905 17.6074 316.16 15.0378 310.238 15.0378C304.694 15.0378 301.84 17.1422 301.249 22.0332H307.52C307.923 20.4206 308.676 19.9022 310.238 19.9022C312.15 19.9022 312.931 20.5845 312.931 22.2525V23.0167L307.816 23.236C302.972 23.4553 300.845 25.367 300.845 29.2191C300.845 33.1 303.215 35.2044 307.09 35.2044ZM309.134 30.5327C307.788 30.5327 306.928 29.795 306.928 28.5922C306.928 27.3362 307.6 26.7071 309.243 26.6252L312.931 26.4347C312.931 28.9201 311.369 30.5327 309.134 30.5327ZM279.878 34.7126H286.042V24.4388C286.042 21.9512 287.118 20.7506 289.084 20.7506C291.022 20.7506 292.071 21.8981 292.071 24.4388V34.7126H298.261V23.6458C298.261 17.7979 296.055 15.0378 291.397 15.0378C289.056 15.0378 287.063 16.1852 285.826 18.263V15.5296H279.878V34.7126ZM273.821 14.0277C276.136 14.0277 277.373 12.8249 277.373 10.5854C277.373 8.39905 276.108 7.14307 273.821 7.14307C271.56 7.14307 270.24 8.39905 270.24 10.5854C270.242 12.8249 271.48 14.0277 273.821 14.0277ZM270.727 34.7126H276.891V15.5318H270.727V34.7126ZM242.815 14.0277C245.156 14.0277 246.395 12.8249 246.395 10.5854C246.395 8.39905 245.077 7.14307 242.815 7.14307C240.552 7.14307 239.262 8.42785 239.262 10.5854C239.262 12.8249 240.5 14.0277 242.815 14.0277ZM239.747 34.7126H245.911V15.5318H239.747V34.7126ZM225.749 34.7126H231.913V26.1866C231.913 23.0433 233.125 21.7319 236.031 21.7319H237.107V15.1751H236.703C234.469 15.1751 233.122 16.0767 231.697 18.427V15.5296H225.749V34.7126ZM213.314 29.8482C210.973 29.8482 209.762 28.4549 209.762 25.1211C209.762 21.7873 210.973 20.394 213.314 20.394C215.629 20.394 216.84 21.7873 216.84 25.1211C216.84 28.4549 215.629 29.8482 213.314 29.8482ZM213.314 35.2044C219.801 35.2044 223.031 31.9526 223.031 25.1211C223.031 18.263 219.801 15.0378 213.314 15.0378C206.801 15.0378 203.572 18.263 203.572 25.1211C203.572 31.9526 206.801 35.2044 213.314 35.2044ZM248.898 34.3294C249.437 38.8106 251.994 40.4764 258.346 40.4764C265.211 40.4764 267.74 38.0996 267.74 31.5694V15.5296H261.765V18.0437C260.393 16.0501 258.482 15.0378 256.005 15.0378C251.052 15.0378 248.604 18.1257 248.604 24.3835C248.604 30.0387 251.135 32.9915 256.005 32.9915C258.643 32.9915 260.742 32.1719 261.765 30.7498V32.6614C261.765 34.655 260.528 35.7759 258.346 35.7759C256.435 35.7759 255.573 35.3927 255.062 34.3272H248.898V34.3294Z" fill="white"/>
<path d="M147.577 36.9535L135.192 24.6716L146.736 13.0447C147.01 12.7687 146.815 12.2979 146.425 12.2979H134.183L123.758 23.1167V12.2979H112.589V37.7025H123.758V26.6427L134.621 37.7025H147.266C147.66 37.7025 147.855 37.2272 147.577 36.9535Z" fill="white"/>
<path d="M96.472 12.2979V25.3725L84.2077 12.2979H73.5859V37.7025H84.2077V24.6278L96.472 37.7025H107.116V12.2979H96.472Z" fill="white"/>
<path d="M43.3633 12.2976L38.1948 27.7813L32.7635 12.2976H20.9372L15.5059 27.7813L10.3374 12.2976H0.438318C0.138281 12.2976 -0.0741543 12.5933 0.024398 12.878L8.51961 37.7022H21.5066L26.7408 22.8099L31.9751 37.7022H44.9621L53.4595 12.8758C53.5559 12.5911 53.3456 12.2954 53.0456 12.2954H43.3633V12.2976Z" fill="white"/>
<path d="M68.1109 12.2979H56.9417V37.7025H68.1109V12.2979Z" fill="white"/>
<path d="M168.932 0.366286L157.958 11.3428C157.47 11.8312 157.47 12.6196 157.958 13.108L169.817 24.9671L157.901 36.892C157.415 37.3804 157.415 38.1688 157.901 38.6572L168.878 49.6337C169.366 50.1221 170.157 50.1221 170.643 49.6337L194.422 25.8541C194.911 25.3657 194.911 24.5751 194.422 24.0889L170.697 0.366286C170.211 -0.122095 169.421 -0.122095 168.932 0.366286Z" fill="url(#paint0_linear_1624_430)"/>
<defs>
<linearGradient id="paint0_linear_1624_430" x1="145.527" y1="33.9909" x2="205.68" y2="11.698" gradientUnits="userSpaceOnUse">
<stop stop-color="#FF9532"/>
<stop offset="0.1669" stop-color="#FF8A1C"/>
<stop offset="0.5077" stop-color="#FF5B21"/>
<stop offset="0.7932" stop-color="#FF5A24"/>
</linearGradient>
</defs>
</svg>
