<svg width="240" height="58" viewBox="0 0 240 58" fill="none" xmlns="http://www.w3.org/2000/svg">
<path d="M181.834 42.8651L166.573 28.6183L180.799 15.1304C181.137 14.8095 180.895 14.2646 180.415 14.2646H165.332L152.487 26.8143V14.2646H138.725V43.7348H152.487V30.9047L165.87 43.7348H181.452C181.935 43.7348 182.175 43.1859 181.832 42.8651H181.834Z" fill="white"/>
<path d="M118.866 14.2646V29.4316L103.753 14.2646H90.668V43.7348H103.753V28.5679L118.866 43.7348H131.979V14.2646H118.866Z" fill="white"/>
<path d="M53.4292 14.2646L47.0613 32.2264L40.3697 14.2646H25.7992L19.1076 32.2264L12.7397 14.2646H0.539761C0.16896 14.2646 -0.0903858 14.6077 0.0296421 14.9366L10.4978 43.7348H26.5001L32.9494 26.4591L39.3988 43.7348H55.4011L65.8692 14.9366C65.9893 14.6077 65.7278 14.2646 65.3591 14.2646H53.4313H53.4292Z" fill="white"/>
<path d="M83.9207 14.2646H70.1582V43.7348H83.9207V14.2646Z" fill="white"/>
<path d="M208.145 0.42377L194.62 13.1571C194.02 13.7221 194.02 14.6402 194.62 15.2053L209.232 28.9617L194.55 42.7947C193.95 43.3598 193.95 44.2759 194.55 44.8429L208.074 57.5762C208.674 58.1413 209.65 58.1413 210.25 57.5762L239.549 29.9908C240.15 29.4258 240.15 28.5076 239.549 27.9426L210.321 0.42377C209.72 -0.141257 208.745 -0.141257 208.145 0.42377Z" fill="#FF5B21"/>
</svg>
