<svg width="240" height="58" viewBox="0 0 240 58" fill="none" xmlns="http://www.w3.org/2000/svg">
<path d="M181.833 42.8648L166.572 28.6181L180.798 15.1301C181.136 14.8093 180.894 14.2644 180.414 14.2644H165.331L152.486 26.8141V14.2644H138.724V43.7346H152.486V30.9044L165.869 43.7346H181.451C181.934 43.7346 182.174 43.1857 181.831 42.8648H181.833Z" fill="white"/>
<path d="M118.866 14.2644V29.4313L103.753 14.2644H90.668V43.7346H103.753V28.5677L118.866 43.7346H131.979V14.2644H118.866Z" fill="white"/>
<path d="M53.4292 14.2644L47.0613 32.2262L40.3697 14.2644H25.7992L19.1076 32.2262L12.7397 14.2644H0.539761C0.16896 14.2644 -0.0903858 14.6075 0.0296421 14.9364L10.4978 43.7346H26.5001L32.9494 26.4589L39.3988 43.7346H55.4011L65.8692 14.9364C65.9893 14.6075 65.7278 14.2644 65.3591 14.2644H53.4313H53.4292Z" fill="white"/>
<path d="M83.9207 14.2644H70.1582V43.7346H83.9207V14.2644Z" fill="white"/>
<path d="M208.145 0.42377L194.62 13.1571C194.02 13.7221 194.02 14.6402 194.62 15.2053L209.232 28.9617L194.55 42.7947C193.95 43.3598 193.95 44.2759 194.55 44.8429L208.074 57.5762C208.674 58.1413 209.65 58.1413 210.25 57.5762L239.549 29.9908C240.15 29.4258 240.15 28.5076 239.549 27.9426L210.321 0.42377C209.72 -0.141257 208.745 -0.141257 208.145 0.42377Z" fill="#FF5911"/>
</svg>
