<?xml version="1.0" encoding="UTF-8"?>
<svg width="88px" height="33px" viewBox="0 0 88 33" version="1.1" xmlns="http://www.w3.org/2000/svg" xmlns:xlink="http://www.w3.org/1999/xlink">
    <!-- Generator: Sketch 49.1 (51147) - http://www.bohemiancoding.com/sketch -->
    <title>Mask</title>
    <desc>Created with Sketch.</desc>
    <defs>
        <path d="M0,11.6207409 L12.9185232,9.81491726 L12.9185232,14.9711042 L0,16.3850021 L0,11.6207409 Z M4.12198772,16.674638 L8.85191872,16.1943822 L8.85191872,32.9999382 L4.12198772,32.9999382 L4.12198772,16.674638 Z M14.6629103,9.57077436 L19.6464744,8.87401738 L19.6464744,32.9998456 L14.6629103,32.9998456 L14.6629103,9.57077436 Z M20.5750757,8.74393137 L27.7714875,7.73801936 L27.7714875,13.3460483 L20.5750757,14.1332972 L20.5750757,8.74393137 Z M20.5750757,18.1447458 L25.2994187,17.740775 L25.2994187,23.3766001 L20.5750757,23.6332513 L20.5750757,18.1447458 Z M20.5750136,27.5882428 L27.7714254,27.3723593 L27.7714254,32.9998456 L20.5750136,32.9998456 L20.5750136,27.5882428 Z M46.3817916,5.12755879 L52.9147837,4.21399179 L52.9147837,33 L46.3817916,33 L46.3817916,5.12755879 Z M54.1355132,4.04338516 L63.6562223,2.71225812 L63.6562223,9.412676 L54.1355132,10.4544142 L54.1355132,4.04338516 Z M54.1355132,15.2766149 L60.3760667,14.7444729 L60.3760667,21.4674366 L54.1355132,21.8065497 L54.1355132,15.2766149 Z M54.1354201,26.5792423 L63.6561292,26.2935596 L63.6561292,32.9998456 L54.1354201,32.9998456 L54.1354201,26.5792423 Z M29.6753499,7.47160864 L35.3521364,6.67787396 L35.3521364,32.9999073 L29.6753499,32.9999073 L29.6753499,7.47160864 Z M36.4116832,27.1129285 L44.65243,26.8655427 L44.65243,32.9998456 L36.4116832,32.9998456 L36.4116832,27.1129285 Z M85.001076,2.39677175 C86.888578,4.17201959 87.840711,6.68633634 87.6131552,9.29546887 C87.1825688,14.2271247 84.7769351,18.1785027 78.079097,24.6886713 L67.1173049,25.0466241 C67.1173049,25.0466241 74.7529956,18.1470004 77.6249168,14.7759443 C79.4857206,12.5914753 80.273939,10.2334347 79.5096248,8.66171651 C79.0253316,7.66568758 77.9378448,7.16998946 76.5979667,7.24411255 L76.5979667,0.133238096 C79.9094772,-0.340223098 82.937552,0.455982354 85.001076,2.39677175 Z M88,32.9998765 L65.7650401,32.9998765 L65.7650401,26.1090276 L88,25.5587528 L88,32.9998765 Z M75.3197119,0.292880687 L75.3237477,7.53501476 C73.9680369,8.10329173 72.6281589,9.1369999 72.9420182,13.4951283 L66.054809,14.1029376 C65.688795,6.38888659 68.8606055,1.66076042 75.3197119,0.292880687 Z" id="path-1"></path>
    </defs>
    <g id="Symbols" stroke="none" stroke-width="1" fill="none" fill-rule="evenodd">
        <g id="Icons/Logo">
            <g id="logo">
                <mask id="mask-2" fill="white">
                    <use xlink:href="#path-1"></use>
                </mask>
                <use id="Mask" fill="#FFFFFF" xlink:href="#path-1"></use>
            </g>
        </g>
    </g>
</svg>